<svg xmlns="http://www.w3.org/2000/svg" version="1.1" xmlnsXlink="http://www.w3.org/1999/xlink" xmlnsSvgjs="http://svgjs.dev/svgjs" width="2000" height="429" viewBox="0 0 2000 429"><g transform="matrix(1,0,0,1,-1.2121212121212466,0.9164479241912034)"><svg viewBox="0 0 396 85" data-background-color="#000000" preserveAspectRatio="xMidYMid meet" height="429" width="2000" xmlns="http://www.w3.org/2000/svg" xmlnsXlink="http://www.w3.org/1999/xlink"><g id="tight-bounds" transform="matrix(1,0,0,1,0.2400000000000091,-0.18158059104021618)"><svg viewBox="0 0 395.52 85.36316118208045" height="85.36316118208045" width="395.52"><g><svg viewBox="0 0 529.6605222419632 114.31405878824233" height="85.36316118208045" width="395.52"><g><rect width="3.179558790647093" height="76.59041938812236" x="122.63751111977922" y="18.86181970005999" fill="#ffffff" opacity="1" stroke-width="0" stroke="transparent" fill-opacity="1" class="rect-in-0" data-fill-palette-color="primary" rx="1%" id="in-0" data-palette-color="#ffffff"></rect></g><g transform="matrix(1,0,0,1,134.1405222419632,19.052343131373725)"><svg viewBox="0 0 395.52 76.20937252549489" height="76.20937252549489" width="395.52"><g><svg viewBox="0 0 395.52 76.20937252549489" height="76.20937252549489" width="395.52"><g><svg viewBox="0 0 395.52 76.20937252549489" height="76.20937252549489" width="395.52"><g transform="matrix(1,0,0,1,0,0)"><svg width="395.52" viewBox="1.9000000000000006 -36.15 417.6500000000001 77.3" height="76.20937252549489" data-palette-color="#ffffff"><svg></svg><svg></svg><g class="undefined-text-0" data-fill-palette-color="primary" id="text-0"><path d="M18.5 1c-2.867 0-5.54-0.317-8.02-0.95-2.487-0.633-4.237-1.267-5.25-1.9-1.02-0.633-1.697-1.083-2.03-1.35v0c-0.867-0.7-1.3-1.667-1.3-2.9v0c0-0.967 0.117-1.883 0.35-2.75v0c0.433-1.633 1.217-2.45 2.35-2.45v0c0.367 0.033 1.543 0.417 3.53 1.15 1.98 0.733 3.537 1.1 4.67 1.1v0c1.7 0 2.55-0.667 2.55-2v0c0-0.8-0.417-1.543-1.25-2.23-0.833-0.68-1.84-1.337-3.02-1.97-1.187-0.633-2.38-1.36-3.58-2.18-1.2-0.813-2.217-1.947-3.05-3.4-0.833-1.447-1.25-3.137-1.25-5.07v0c0-3.2 1.567-5.71 4.7-7.53 3.133-1.813 7.183-2.72 12.15-2.72 4.967 0 8.91 0.507 11.83 1.52 2.913 1.02 4.37 2.43 4.37 4.23v0c0 1.3-0.3 2.44-0.9 3.42-0.6 0.987-1.233 1.48-1.9 1.48v0c-0.233 0-1.007-0.26-2.32-0.78-1.32-0.513-2.513-0.77-3.58-0.77v0c-2.1 0-3.15 0.817-3.15 2.45v0c0 0.8 0.5 1.533 1.5 2.2 1 0.667 2.21 1.307 3.63 1.92 1.413 0.62 2.837 1.313 4.27 2.08 1.433 0.767 2.65 1.817 3.65 3.15 1 1.333 1.5 2.95 1.5 4.85 0 1.9-0.607 3.633-1.82 5.2-1.22 1.567-2.83 2.783-4.83 3.65v0c-3.967 1.7-8.567 2.55-13.8 2.55zM75.55-32.65v0l16.35 27.65c0.667 1.1 1 2.023 1 2.77 0 0.753-0.3 1.313-0.9 1.68-0.6 0.367-1.3 0.55-2.1 0.55v0h-16.1c-1.633 0-2.683-0.3-3.15-0.9v0c-0.133-0.2-0.317-0.55-0.55-1.05v0l-1.45-3.1c-0.433-0.967-1.45-1.517-3.05-1.65v0h-9.45c-0.7 0-1.233 0.067-1.6 0.2-0.367 0.133-0.667 0.433-0.9 0.9v0l-1.95 4.05c-0.333 0.6-0.7 1.007-1.1 1.22-0.4 0.22-0.983 0.33-1.75 0.33v0h-4.5c-1.3 0-2-0.467-2.1-1.4v0c-0.033-0.133-0.05-0.267-0.05-0.4v0c0-0.767 0.25-1.5 0.75-2.2v0l15.65-27.6c1.5-2.6 3.933-3.9 7.3-3.9v0h4c2.667 0 4.55 0.95 5.65 2.85zM59.35-19.85v0l-2.3 4.55c-0.133 0.3-0.2 0.567-0.2 0.8v0c0 0.867 0.417 1.3 1.25 1.3v0h4.55c0.7 0 1.183-0.177 1.45-0.53 0.267-0.347 0.4-0.653 0.4-0.92 0-0.267-0.05-0.533-0.15-0.8v0l-1.9-4.3c-0.4-0.867-0.917-1.3-1.55-1.3-0.633 0-1.15 0.4-1.55 1.2zM126.65-2.6v0c-0.6 1.133-1.64 2.017-3.12 2.65-1.487 0.633-3.097 0.95-4.83 0.95-1.733 0-3.317-0.3-4.75-0.9-1.433-0.6-2.467-1.467-3.1-2.6v0c-5-9.233-9.65-18.3-13.95-27.2v0c-0.5-1.067-0.75-1.883-0.75-2.45v0c0-1.8 0.817-2.7 2.45-2.7v0l14.45-0.1c1.233 0 2.177 0.217 2.83 0.65 0.647 0.433 1.22 1.3 1.72 2.6v0l4.85 12.4c0.2 0.533 0.567 0.8 1.1 0.8 0.533 0 0.933-0.267 1.2-0.8v0l6.55-14.2c0.433-0.9 0.9-1.4 1.4-1.5v0c0.2-0.033 0.55-0.05 1.05-0.05v0l5.75 0.1c0.633 0 1.083 0.3 1.35 0.9v0c0.1 0.233 0.15 0.517 0.15 0.85 0 0.333-0.373 1.25-1.12 2.75-0.753 1.5-2.703 5.667-5.85 12.5-3.153 6.833-5.613 11.95-7.38 15.35zM149.5 0c-0.933 0-1.723-0.31-2.37-0.93-0.653-0.613-1.07-1.63-1.25-3.05-0.187-1.413-0.28-5.663-0.28-12.75 0-7.08 0.117-11.703 0.35-13.87v0c0.267-2.8 1.45-4.233 3.55-4.3v0c2.4-0.067 12.35-0.1 29.85-0.1v0c1.967 0 2.95 1.25 2.95 3.75v0c0 1.967-0.867 2.95-2.6 2.95v0h-11c-0.7 0-1.257 0.233-1.67 0.7-0.42 0.467-0.63 1.067-0.63 1.8v0 3.6c0 1 0.45 1.5 1.35 1.5v0h9.1c0.533 0 0.943 0.05 1.23 0.15 0.28 0.1 0.537 0.39 0.77 0.87 0.233 0.487 0.35 1.28 0.35 2.38 0 1.1-0.19 1.833-0.57 2.2-0.387 0.367-1.013 0.55-1.88 0.55v0h-8.15c-0.833 0-1.407 0.207-1.72 0.62-0.32 0.42-0.48 1.063-0.48 1.93v0 2.45c0 1.433 0.683 2.15 2.05 2.15v0h12.45c0.6 0 1.133 0.173 1.6 0.52 0.467 0.353 0.7 1.12 0.7 2.3 0 1.187-0.283 2.247-0.85 3.18-0.567 0.933-1.233 1.4-2 1.4v0zM236.45-3.05v0c-0.033 0.733-0.35 1.407-0.95 2.02-0.6 0.62-1.4 0.963-2.4 1.03v0c-1.9 0.133-4.183 0.2-6.85 0.2-2.667 0-5.117-0.067-7.35-0.2v0c-1-0.067-1.8-0.41-2.4-1.03-0.6-0.613-0.917-1.287-0.95-2.02v0c-0.1-5.067-0.15-9.393-0.15-12.98 0-3.58 0.017-6.203 0.05-7.87v0c0-1.267-0.567-1.9-1.7-1.9v0h-4.5c-0.7 0-1.267-0.167-1.7-0.5-0.433-0.333-0.677-0.917-0.73-1.75-0.047-0.833-0.07-1.7-0.07-2.6 0-0.9 0.023-1.677 0.07-2.33 0.053-0.647 0.323-1.147 0.81-1.5 0.48-0.347 1.003-0.52 1.57-0.52v0c4.333-0.067 10.2-0.1 17.6-0.1 7.4 0 12.7 0.033 15.9 0.1v0c0.567 0.033 1.093 0.217 1.58 0.55 0.48 0.333 0.743 0.823 0.79 1.47 0.053 0.653 0.08 1.413 0.08 2.28 0 0.867-0.017 1.7-0.05 2.5v0c-0.1 1.5-0.917 2.25-2.45 2.25v0h-4.5c-1.133 0-1.7 0.583-1.7 1.75v0c0.1 4.2 0.15 8 0.15 11.4 0 3.4-0.05 6.65-0.15 9.75zM298.1-3.15v0c-0.067 0.767-0.39 1.45-0.97 2.05-0.587 0.6-1.38 0.933-2.38 1v0c-2.733 0.167-4.983 0.25-6.75 0.25-1.767 0-3.85-0.083-6.25-0.25v0c-1.833-0.167-2.8-0.967-2.9-2.4v0c-0.033-0.567-0.067-1.31-0.1-2.23-0.033-0.913-0.073-1.72-0.12-2.42-0.053-0.7-0.24-1.25-0.56-1.65-0.313-0.4-0.87-0.6-1.67-0.6v0h-3.75c-0.8 0-1.357 0.2-1.67 0.6-0.32 0.4-0.503 0.95-0.55 1.65-0.053 0.7-0.097 1.507-0.13 2.42-0.033 0.92-0.067 1.663-0.1 2.23v0c-0.1 1.433-1.067 2.233-2.9 2.4v0c-2.4 0.167-4.59 0.25-6.57 0.25-1.987 0-4.347-0.083-7.08-0.25v0c-1-0.067-1.79-0.4-2.37-1-0.587-0.6-0.913-1.283-0.98-2.05v0c-0.267-2.933-0.4-7.65-0.4-14.15 0-6.5 0.067-10.727 0.2-12.68 0.133-1.947 0.433-3.28 0.9-4 0.467-0.713 1.4-1.07 2.8-1.07v0h12.2c1.167 0 2.16 0.4 2.98 1.2 0.813 0.8 1.22 1.833 1.22 3.1v0 10.5c0 1.2 0.517 1.8 1.55 1.8v0h5.55c1.033 0 1.55-0.6 1.55-1.8v0-10.5c0-1.267 0.407-2.3 1.22-3.1 0.82-0.8 1.813-1.2 2.98-1.2v0h11.55c1.4 0 2.333 0.357 2.8 1.07 0.467 0.72 0.767 2.053 0.9 4 0.133 1.953 0.2 6.18 0.2 12.68 0 6.5-0.133 11.217-0.4 14.15zM308.2 0c-0.933 0-1.727-0.31-2.38-0.93-0.647-0.613-1.063-1.63-1.25-3.05-0.18-1.413-0.27-5.663-0.27-12.75 0-7.08 0.117-11.703 0.35-13.87v0c0.267-2.8 1.45-4.233 3.55-4.3v0c2.4-0.067 12.35-0.1 29.85-0.1v0c1.967 0 2.95 1.25 2.95 3.75v0c0 1.967-0.867 2.95-2.6 2.95v0h-11c-0.7 0-1.257 0.233-1.67 0.7-0.42 0.467-0.63 1.067-0.63 1.8v0 3.6c0 1 0.45 1.5 1.35 1.5v0h9.1c0.533 0 0.94 0.05 1.22 0.15 0.287 0.1 0.547 0.39 0.78 0.87 0.233 0.487 0.35 1.28 0.35 2.38 0 1.1-0.193 1.833-0.58 2.2-0.38 0.367-1.003 0.55-1.87 0.55v0h-8.15c-0.833 0-1.41 0.207-1.73 0.62-0.313 0.42-0.47 1.063-0.47 1.93v0 2.45c0 1.433 0.683 2.15 2.05 2.15v0h12.45c0.6 0 1.133 0.173 1.6 0.52 0.467 0.353 0.7 1.12 0.7 2.3 0 1.187-0.283 2.247-0.85 3.18-0.567 0.933-1.233 1.4-2 1.4v0z" fill="#ffffff" fill-rule="nonzero" stroke="none" stroke-width="1" stroke-linecap="butt" stroke-linejoin="miter" stroke-miterlimit="10" stroke-dasharray="" stroke-dashoffset="0" font-family="none" font-weight="none" font-size="none" text-anchor="none" style="mix-blend-mode: normal" data-fill-palette-color="primary" opacity="1"></path><path transform="translate(0,40.15)" d="M6.7 0c-0.933 0-1.723-0.31-2.37-0.93-0.653-0.613-1.07-1.63-1.25-3.05-0.187-1.413-0.28-5.663-0.28-12.75 0-7.08 0.117-11.703 0.35-13.87v0c0.267-2.8 1.45-4.233 3.55-4.3v0c2.4-0.067 12.35-0.1 29.85-0.1v0c1.967 0 2.95 1.25 2.95 3.75v0c0 1.967-0.867 2.95-2.6 2.95v0h-11c-0.7 0-1.257 0.233-1.67 0.7-0.42 0.467-0.63 1.067-0.63 1.8v0 3.6c0 1 0.45 1.5 1.35 1.5v0h9.1c0.533 0 0.94 0.05 1.22 0.15 0.287 0.1 0.547 0.39 0.78 0.87 0.233 0.487 0.35 1.28 0.35 2.38 0 1.1-0.19 1.833-0.57 2.2-0.387 0.367-1.013 0.55-1.88 0.55v0h-8.15c-0.833 0-1.407 0.207-1.72 0.62-0.32 0.42-0.48 1.063-0.48 1.93v0 2.45c0 1.433 0.683 2.15 2.05 2.15v0h12.45c0.6 0 1.133 0.173 1.6 0.52 0.467 0.353 0.7 1.12 0.7 2.3 0 1.187-0.283 2.247-0.85 3.18-0.567 0.933-1.233 1.4-2 1.4v0zM53.35 0h-8.4c-0.667 0-1-0.25-1-0.75v0c0-0.3 0.183-0.65 0.55-1.05v0l13.3-14.05-12.15-14.15c-0.7-0.867-1.05-1.577-1.05-2.13 0-0.547 0.083-0.987 0.25-1.32v0c0.5-1 1.383-1.5 2.65-1.5v0l18.9-0.05c0.967 0 1.693 0.15 2.18 0.45 0.48 0.3 1.053 0.917 1.72 1.85v0l2.65 3.8c0.5 0.767 0.91 1.15 1.23 1.15 0.313 0 0.77-0.317 1.37-0.95v0l5.05-5.1c0.5-0.533 0.883-0.867 1.15-1 0.267-0.133 0.65-0.2 1.15-0.2v0h7.95c0.633 0 0.95 0.217 0.95 0.65v0c0 0.333-0.183 0.733-0.55 1.2v0l-11.75 13c5.1 6.833 8.817 11.95 11.15 15.35v0c0.733 1.033 1.1 1.967 1.1 2.8v0c0 1.2-0.683 1.817-2.05 1.85v0c-3.067 0.067-6.017 0.1-8.85 0.1-2.833 0-5.233-0.01-7.2-0.03-1.967-0.013-3.133-0.287-3.5-0.82v0l-5.75-7.15c-0.4-0.5-0.74-0.75-1.02-0.75-0.287 0-0.68 0.25-1.18 0.75v0l-6.6 6.9c-0.5 0.533-0.873 0.857-1.12 0.97-0.253 0.12-0.63 0.18-1.13 0.18zM117.25-6.45v0 4.2c0 1.433-0.973 2.2-2.92 2.3-1.953 0.1-4.07 0.15-6.35 0.15-2.287 0-4.897-0.083-7.83-0.25v0c-0.967-0.067-1.74-0.4-2.32-1-0.587-0.6-0.93-1.283-1.03-2.05v0c-0.267-2.933-0.4-7.543-0.4-13.83 0-6.28 0.1-10.853 0.3-13.72 0.2-2.867 1.65-4.317 4.35-4.35v0c3.1-0.067 6.417-0.1 9.95-0.1 3.533 0 7.36 0.05 11.48 0.15 4.113 0.1 7.47 1.65 10.07 4.65 2.6 3 3.9 6.3 3.9 9.9 0 3.6-1.15 6.567-3.45 8.9-2.3 2.333-5.667 3.5-10.1 3.5v0h-3.9c-0.433 0-0.833 0.15-1.2 0.45-0.367 0.3-0.55 0.667-0.55 1.1zM117.2-24.55v0l0.1 9.25c0 0.633 0.35 0.95 1.05 0.95v0c2.067 0 3.693-0.573 4.88-1.72 1.18-1.153 1.77-2.513 1.77-4.08 0-1.567-0.557-2.917-1.67-4.05-1.12-1.133-2.763-1.7-4.93-1.7v0c-0.8 0-1.2 0.45-1.2 1.35zM145 0c-0.933 0-1.723-0.31-2.37-0.93-0.653-0.613-1.07-1.63-1.25-3.05-0.187-1.413-0.28-5.663-0.28-12.75 0-7.08 0.117-11.703 0.35-13.87v0c0.267-2.8 1.45-4.233 3.55-4.3v0c2.4-0.067 12.35-0.1 29.85-0.1v0c1.967 0 2.95 1.25 2.95 3.75v0c0 1.967-0.867 2.95-2.6 2.95v0h-11c-0.7 0-1.257 0.233-1.67 0.7-0.42 0.467-0.63 1.067-0.63 1.8v0 3.6c0 1 0.45 1.5 1.35 1.5v0h9.1c0.533 0 0.943 0.05 1.23 0.15 0.28 0.1 0.537 0.39 0.77 0.87 0.233 0.487 0.35 1.28 0.35 2.38 0 1.1-0.19 1.833-0.57 2.2-0.387 0.367-1.013 0.55-1.88 0.55v0h-8.15c-0.833 0-1.407 0.207-1.72 0.62-0.32 0.42-0.48 1.063-0.48 1.93v0 2.45c0 1.433 0.683 2.15 2.05 2.15v0h12.45c0.6 0 1.133 0.173 1.6 0.52 0.467 0.353 0.7 1.12 0.7 2.3 0 1.187-0.283 2.247-0.85 3.18-0.567 0.933-1.233 1.4-2 1.4v0zM206.5-0.1v0c-2.233 0.2-5.433 0.3-9.6 0.3-4.167 0-7.007-0.057-8.52-0.17-1.52-0.12-2.663-0.397-3.43-0.83-0.767-0.433-1.183-1.117-1.25-2.05v0c-0.2-3.6-0.3-7.71-0.3-12.33 0-4.613 0.067-9.503 0.2-14.67v0c0.067-3.2 1.55-4.9 4.45-5.1v0c2.033-0.133 5.15-0.2 9.35-0.2 4.2 0 7.493 0.057 9.88 0.17 2.38 0.12 4.68 0.67 6.9 1.65 2.213 0.987 3.987 2.263 5.32 3.83v0c2.767 3.233 4.15 6.983 4.15 11.25v0c0 4.5-1.45 8.517-4.35 12.05v0c-1.4 1.7-3.207 3.1-5.42 4.2-2.22 1.1-4.68 1.733-7.38 1.9zM204.25-24.2v0 12.1c0 0.267 0.1 0.517 0.3 0.75 0.2 0.233 0.467 0.35 0.8 0.35v0c2.133 0 3.777-0.733 4.93-2.2 1.147-1.467 1.72-3.2 1.72-5.2 0-2-0.523-3.743-1.57-5.23-1.053-1.48-2.463-2.22-4.23-2.22v0c-0.433 0-0.767 0.017-1 0.05v0c-0.633 0.167-0.95 0.7-0.95 1.6zM232.35-35v0h13.4c1.4 0 2.323 0.35 2.77 1.05 0.453 0.7 0.753 2.14 0.9 4.32 0.153 2.187 0.23 6.42 0.23 12.7 0 6.287-0.133 10.897-0.4 13.83v0c-0.1 0.767-0.443 1.45-1.03 2.05-0.58 0.6-1.353 0.933-2.32 1v0c-1.9 0.133-4.1 0.2-6.6 0.2-2.5 0-4.867-0.067-7.1-0.2v0c-0.967-0.067-1.74-0.4-2.32-1-0.587-0.6-0.93-1.283-1.03-2.05v0c-0.267-2.933-0.4-7.543-0.4-13.83 0-6.28 0.073-10.513 0.22-12.7 0.153-2.18 0.453-3.62 0.9-4.32 0.453-0.7 1.38-1.05 2.78-1.05zM284.1-3.05v0c-0.033 0.733-0.35 1.407-0.95 2.02-0.6 0.62-1.4 0.963-2.4 1.03v0c-1.9 0.133-4.183 0.2-6.85 0.2-2.667 0-5.117-0.067-7.35-0.2v0c-1-0.067-1.8-0.41-2.4-1.03-0.6-0.613-0.917-1.287-0.95-2.02v0c-0.1-5.067-0.15-9.393-0.15-12.98 0-3.58 0.017-6.203 0.05-7.87v0c0-1.267-0.567-1.9-1.7-1.9v0h-4.5c-0.7 0-1.267-0.167-1.7-0.5-0.433-0.333-0.677-0.917-0.73-1.75-0.047-0.833-0.07-1.7-0.07-2.6 0-0.9 0.023-1.677 0.07-2.33 0.053-0.647 0.32-1.147 0.8-1.5 0.487-0.347 1.013-0.52 1.58-0.52v0c4.333-0.067 10.2-0.1 17.6-0.1 7.4 0 12.7 0.033 15.9 0.1v0c0.567 0.033 1.09 0.217 1.57 0.55 0.487 0.333 0.753 0.823 0.8 1.47 0.053 0.653 0.08 1.413 0.08 2.28 0 0.867-0.017 1.7-0.05 2.5v0c-0.1 1.5-0.917 2.25-2.45 2.25v0h-4.5c-1.133 0-1.7 0.583-1.7 1.75v0c0.1 4.2 0.15 8 0.15 11.4 0 3.4-0.05 6.65-0.15 9.75zM301.45-35v0h13.4c1.4 0 2.323 0.35 2.77 1.05 0.453 0.7 0.753 2.14 0.9 4.32 0.153 2.187 0.23 6.42 0.23 12.7 0 6.287-0.133 10.897-0.4 13.83v0c-0.1 0.767-0.443 1.45-1.03 2.05-0.58 0.6-1.353 0.933-2.32 1v0c-1.9 0.133-4.1 0.2-6.6 0.2-2.5 0-4.867-0.067-7.1-0.2v0c-0.967-0.067-1.743-0.4-2.33-1-0.58-0.6-0.92-1.283-1.02-2.05v0c-0.267-2.933-0.4-7.543-0.4-13.83 0-6.28 0.073-10.513 0.22-12.7 0.153-2.18 0.453-3.62 0.9-4.32 0.453-0.7 1.38-1.05 2.78-1.05zM348.9 1v0c-4.033 0-7.683-0.527-10.95-1.58-3.267-1.047-5.917-2.453-7.95-4.22-2.033-1.767-3.583-3.743-4.65-5.93-1.067-2.18-1.6-4.453-1.6-6.82 0-2.367 0.54-4.643 1.62-6.83 1.087-2.18 2.637-4.153 4.65-5.92 2.02-1.767 4.663-3.183 7.93-4.25 3.267-1.067 6.85-1.6 10.75-1.6 3.9 0 7.35 0.483 10.35 1.45 3 0.967 5.417 2.283 7.25 3.95v0c3.733 3.4 5.6 7.433 5.6 12.1v0c0 2.367-0.51 4.683-1.53 6.95-1.013 2.267-2.463 4.323-4.35 6.17-1.88 1.853-4.303 3.37-7.27 4.55-2.967 1.187-6.25 1.847-9.85 1.98zM358.8-18.43c0-1.58-0.567-2.963-1.7-4.15-1.133-1.18-2.86-1.77-5.18-1.77-2.313 0-4.153 0.617-5.52 1.85-1.367 1.233-2.05 2.733-2.05 4.5 0 1.767 0.717 3.183 2.15 4.25 1.433 1.067 3.157 1.6 5.17 1.6 2.02 0 3.713-0.65 5.08-1.95 1.367-1.3 2.05-2.743 2.05-4.33zM410.8-35v0h5.35c1.133 0 1.923 0.183 2.37 0.55 0.453 0.367 0.697 1.117 0.73 2.25v0c0.2 5.067 0.3 10.517 0.3 16.35 0 5.833-0.117 10.1-0.35 12.8v0c-0.067 0.767-0.36 1.467-0.88 2.1-0.513 0.633-1.187 0.95-2.02 0.95v0h-8.35c-1.167 0-2.45-0.417-3.85-1.25v0c-7.733-4.567-12.6-7.35-14.6-8.35v0c-0.4-0.167-0.727-0.11-0.98 0.17-0.247 0.287-0.37 0.813-0.37 1.58v0 5.55c0 0.633-0.233 1.133-0.7 1.5v0c-0.7 0.567-2.5 0.85-5.4 0.85v0c-0.8 0-1.583-0.027-2.35-0.08-0.767-0.047-1.393-0.387-1.88-1.02-0.48-0.633-0.737-1.317-0.77-2.05v0c-0.1-4-0.15-9.027-0.15-15.08 0-6.047 0.017-9.987 0.05-11.82 0.033-1.833 0.25-3.127 0.65-3.88 0.4-0.747 1.167-1.12 2.3-1.12v0h5.5c1.133 0 2.3 0.317 3.5 0.95v0c10.333 5.367 16.367 8.483 18.1 9.35v0c0.567 0.267 1.017 0.3 1.35 0.1 0.333-0.2 0.5-0.567 0.5-1.1v0-7c0-0.667 0.177-1.217 0.53-1.65 0.347-0.433 0.82-0.65 1.42-0.65z" fill="#38bddb" fill-rule="nonzero" stroke="none" stroke-width="1" stroke-linecap="butt" stroke-linejoin="miter" stroke-miterlimit="10" stroke-dasharray="" stroke-dashoffset="0" font-family="none" font-weight="none" font-size="none" text-anchor="none" style="mix-blend-mode: normal" data-fill-palette-color="accent" opacity="1"></path></g></svg></g></svg></g></svg></g></svg></g><g><svg viewBox="0 0 114.31405878824233 114.31405878824233" height="114.31405878824233" width="114.31405878824233"><g><svg xmlns="http://www.w3.org/2000/svg" xmlnsXlink="http://www.w3.org/1999/xlink" version="1.1" x="0" y="0" viewBox="1 1 62 62" style="enable-background:new 0 0 64 64;" xml:space="preserve" height="114.31405878824233" width="114.31405878824233" class="icon-icon-0" data-fill-palette-color="accent" id="icon-0"><g fill="#38bddb" data-fill-palette-color="accent"><path d="M62.641 34.082l-6.477-12.029c-0.251-0.467-0.674-0.8-1.164-0.954V17c1.103 0 2-0.897 2-2v-2c0-1.103-0.897-2-2-2h-8c-1.103 0-2 0.897-2 2v2c0 0.903 0.605 1.659 1.428 1.907L44.382 21h-2.968c-0.534 0-1.036 0.208-1.414 0.586L38.586 23H25.931C27.88 20.821 29 17.98 29 15c0-6.617-5.383-12-12-12S5 8.383 5 15c0 4.857 2.974 9.191 7.32 11.043C7.902 29.117 5 34.223 5 40c0 1.654 1.346 3 3 3h34.515l3.125 10H45c-1.103 0-2 0.897-2 2v2c0 1.103 0.897 2 2 2h10c1.103 0 2-0.897 2-2v-2c0-1.103-0.897-2-2-2V43h5c1.654 0 3-1.346 3-3v-4.496C63 35.01 62.876 34.518 62.641 34.082zM47 13h8l0.001 2H47V13zM48.618 17H53v4h-6.382L48.618 17zM39.414 25l2-2h12.989l6.478 12.029c0.078 0.146 0.12 0.31 0.12 0.475V37h-6.184c-0.414-1.161-1.514-2-2.816-2h-8.265c-1.252 0-2.299 0.85-2.622 2H41v-8h-2v8H7.302c0.14-0.687 0.342-1.35 0.573-2H14c3.86 0 7-3.141 7-7v-2.949C21.332 25.029 21.662 25 22 25H39.414zM7 15h12v-2H7.202C8.131 8.441 12.171 5 17 5c5.514 0 10 4.486 10 10 0 0.679-0.085 1.346-0.219 2H17v2h9.144c-0.686 1.566-1.764 2.95-3.165 4H22c-2.645 0-5.141 0.625-7.375 1.707C10.191 23.625 7 19.594 7 15zM19 25.302V28c0 2.757-2.243 5-5 5H8.744C10.813 29.098 14.548 26.21 19 25.302zM8 41c-0.551 0-1-0.448-1-1 0-0.338 0.029-0.668 0.051-1h34.214l0.625 2H8zM55.001 57H45v-2h10L55.001 57zM47.735 53l-4.701-15.044C43.011 37.884 43 37.81 43 37.735 43 37.33 43.33 37 43.735 37H52c0.551 0 1 0.448 1 1v15H47.735zM60 41h-5v-2h6v1C61 40.552 60.551 41 60 41z" fill="#38bddb" data-fill-palette-color="accent"></path><path d="M26 33c1.654 0 3-1.346 3-3s-1.346-3-3-3-3 1.346-3 3S24.346 33 26 33zM26 29c0.551 0 1 0.448 1 1s-0.449 1-1 1-1-0.448-1-1S25.449 29 26 29z" fill="#38bddb" data-fill-palette-color="accent"></path><path d="M34 33c1.654 0 3-1.346 3-3s-1.346-3-3-3-3 1.346-3 3S32.346 33 34 33zM34 29c0.551 0 1 0.448 1 1s-0.449 1-1 1-1-0.448-1-1S33.449 29 34 29z" fill="#38bddb" data-fill-palette-color="accent"></path><path d="M44.553 31.342C45.064 32.364 46.092 33 47.236 33h6.146C54.826 33 56 31.825 56 30.382c0-0.404-0.096-0.81-0.276-1.171l-1.276-2.553C53.936 25.636 52.908 25 51.764 25h-6.146C44.174 25 43 26.175 43 27.618c0 0.404 0.096 0.81 0.276 1.171L44.553 31.342zM52.658 27.553l1.276 2.553C53.978 30.19 54 30.286 54 30.382 54 30.723 53.723 31 53.382 31h-1.764l-2-4h2.146C52.145 27 52.488 27.212 52.658 27.553zM45.618 27h1.764l2 4h-2.146c-0.381 0-0.724-0.212-0.894-0.553l-1.276-2.553C45.022 27.81 45 27.714 45 27.618 45 27.277 45.277 27 45.618 27z" fill="#38bddb" data-fill-palette-color="accent"></path><path d="M30 45c-4.962 0-9 4.037-9 9s4.038 9 9 9 9-4.037 9-9S34.962 45 30 45zM23 54c0-1.29 0.357-2.496 0.969-3.535l1.912 0.765c0.68 0.271 1.12 0.921 1.12 1.652 0 0.309-0.171 0.586-0.447 0.724C25.595 54.085 25 55.048 25 56.118v0.133c0 0.75 0.292 1.455 0.823 1.986L26.585 59C26.853 59.268 27 59.622 27 60c0 0.1-0.031 0.194-0.052 0.29C24.615 59.153 23 56.764 23 54zM28.865 60.899C28.946 60.607 29 60.307 29 60c0-0.911-0.355-1.769-1-2.414l-0.763-0.763C27.084 56.67 27 56.467 27 56.251v-0.133c0-0.309 0.171-0.586 0.447-0.724C28.405 54.915 29 53.952 29 52.882c0-1.554-0.933-2.932-2.376-3.51l-1.335-0.534C26.534 47.701 28.185 47 30 47c3.519 0 6.432 2.614 6.92 6h-1.111C34.26 53 33 54.26 33 55.882c0 0.309-0.171 0.586-0.447 0.724C31.595 57.085 31 58.048 31 59.118v1.802C30.672 60.967 30.34 61 30 61 29.613 61 29.236 60.96 28.865 60.899zM33 60.315v-1.197c0-0.309 0.171-0.586 0.447-0.724C34.405 57.915 35 56.952 35 55.809 35 55.362 35.363 55 35.809 55h1.111C36.581 57.352 35.072 59.326 33 60.315z" fill="#38bddb" data-fill-palette-color="accent"></path><path d="M21.68 9.587L20.32 8.12l-0.458 0.424c-0.57 0.53-1.476 0.61-2.151 0.191C17.266 8.46 17 8.011 17 7.534V7h-2v0.534c0 1.175 0.62 2.26 1.659 2.902 0.607 0.375 1.302 0.559 1.995 0.559 0.937 0 1.868-0.335 2.568-0.984L21.68 9.587z" fill="#38bddb" data-fill-palette-color="accent"></path><path d="M10.764 17H9v2h1.764c0.381 0 0.724 0.212 0.894 0.553 0.14 0.28 0.14 0.614 0 0.895l-0.553 1.105 1.789 0.895 0.553-1.105c0.42-0.84 0.42-1.844 0-2.684C12.936 17.636 11.908 17 10.764 17z" fill="#38bddb" data-fill-palette-color="accent"></path><polygon points="37,11 39,11 39,9 41,9 41,7 39,7 39,5 37,5 37,7 35,7 35,9 37,9  " fill="#38bddb" data-fill-palette-color="accent"></polygon><polygon points="5,47 3,47 3,49 1,49 1,51 3,51 3,53 5,53 5,51 7,51 7,49 5,49  " fill="#38bddb" data-fill-palette-color="accent"></polygon><rect x="11" y="55" width="2" height="2" fill="#38bddb" data-fill-palette-color="accent"></rect><rect x="17" y="45" width="2" height="2" fill="#38bddb" data-fill-palette-color="accent"></rect><rect x="39" y="45" width="2" height="2" fill="#38bddb" data-fill-palette-color="accent"></rect><rect x="59" y="49" width="2" height="2" fill="#38bddb" data-fill-palette-color="accent"></rect><rect x="27" y="1" width="2" height="2" fill="#38bddb" data-fill-palette-color="accent"></rect><rect x="41" y="15" width="2" height="2" fill="#38bddb" data-fill-palette-color="accent"></rect><rect x="33" y="19" width="2" height="2" fill="#38bddb" data-fill-palette-color="accent"></rect><rect x="51" y="5" width="2" height="2" fill="#38bddb" data-fill-palette-color="accent"></rect></g></svg></g></svg></g></svg></g><defs></defs></svg><rect width="395.52" height="85.36316118208045" fill="none" stroke="none" visibility="hidden"></rect></g></svg></g></svg>