<svg xmlns="http://www.w3.org/2000/svg" version="1.1" xmlnsXlink="http://www.w3.org/1999/xlink" xmlnsSvgjs="http://svgjs.dev/svgjs" width="2000" height="1250" viewBox="0 0 2000 1250"><g transform="matrix(1,0,0,1,0,0)"><svg viewBox="0 0 512 320" data-background-color="#ffffff" preserveAspectRatio="xMidYMid meet" height="1250" width="2000" xmlns="http://www.w3.org/2000/svg" xmlnsXlink="http://www.w3.org/1999/xlink"><g id="tight-bounds" transform="matrix(1,0,0,1,0,0)"><svg viewBox="0 0 512 320" height="320" width="512"><g><svg></svg></g><g><svg viewBox="0 0 512 320" height="320" width="512"><g><path xmlns="http://www.w3.org/2000/svg" d="M96 160c0-88.366 71.634-160 160-160 88.366 0 160 71.634 160 160 0 88.366-71.634 160-160 160-88.366 0-160-71.634-160-160z" fill="#000000" fill-rule="nonzero" stroke="none" stroke-width="1" stroke-linecap="butt" stroke-linejoin="miter" stroke-miterlimit="10" stroke-dasharray="" stroke-dashoffset="0" font-family="none" font-weight="none" font-size="none" text-anchor="none" style="mix-blend-mode: normal" data-fill-palette-color="tertiary"></path></g><g transform="matrix(1,0,0,1,76.80000000000001,20)"><svg viewBox="0 0 358.4 280" height="280" width="358.4"><g><svg viewBox="0 0 358.4 280" height="280" width="358.4"><g><svg viewBox="0 0 358.4 280" height="280" width="358.4"><g><svg viewBox="0 0 358.4 280" height="280" width="358.4"><g><svg viewBox="0 0 358.4 280" height="280" width="358.4"><g transform="matrix(1,0,0,1,87.25354661673511,41.00505063388336)"><svg viewBox="0 0 183.89290676652976 197.98989873223329" height="197.98989873223329" width="183.89290676652976"><g><svg xmlns="http://www.w3.org/2000/svg" xmlnsXlink="http://www.w3.org/1999/xlink" version="1.1" x="0" y="0" viewBox="8.204023361206055 5 83.59194946289062 90" enable-background="new 0 0 100 100" xml:space="preserve" height="197.98989873223329" width="183.89290676652976" class="icon-o-0" data-fill-palette-color="quaternary" id="o-0"><g fill="#ffffff" data-fill-palette-color="quaternary"><path d="M59.858 87.56c-3.956 0-7.162 3.207-7.162 7.162V95h14.324v-0.278C67.021 90.766 63.814 87.56 59.858 87.56z" fill="#ffffff" data-fill-palette-color="quaternary"></path><path d="M54.818 22.176c0-2.156-1.426-3.959-3.378-4.574v-5.539c1.316-0.56 2.238-1.864 2.238-3.384C53.678 6.647 52.031 5 50 5s-3.678 1.647-3.678 3.678c0 1.52 0.923 2.824 2.238 3.384v5.539c-1.953 0.615-3.378 2.419-3.378 4.574v0.138h9.636V22.176z" fill="#ffffff" data-fill-palette-color="quaternary"></path><path d="M64.264 34.122c0-5.256-4.261-9.516-9.516-9.516h-9.496c-5.256 0-9.517 4.261-9.517 9.516v5.302h28.529V34.122zM45.762 33.413c0 0.809-0.656 1.464-1.464 1.464s-1.464-0.656-1.464-1.464v-2.796c0-0.809 0.656-1.464 1.464-1.464s1.464 0.656 1.464 1.464V33.413zM57.167 33.413c0 0.809-0.656 1.464-1.464 1.464s-1.464-0.656-1.464-1.464v-2.796c0-0.809 0.655-1.464 1.464-1.464s1.464 0.656 1.464 1.464V33.413z" fill="#ffffff" data-fill-palette-color="quaternary"></path><polygon points="74.991,48.7 74.991,61.053 79.406,68.459 84.838,65.221  " fill="#ffffff" data-fill-palette-color="quaternary"></polygon><path d="M91.171 71.022c-1.376-2.575-4.579-3.547-7.154-2.17-2.575 1.376-3.547 4.579-2.17 7.154 0.951 1.778 2.773 2.791 4.657 2.794l-2.656-4.969 4.403-2.353 2.656 4.969C91.951 74.878 92.122 72.801 91.171 71.022z" fill="#ffffff" data-fill-palette-color="quaternary"></path><polygon points="20.594,68.459 25.009,61.053 25.009,48.7 15.162,65.221  " fill="#ffffff" data-fill-palette-color="quaternary"></polygon><path d="M15.983 68.852c-2.575-1.376-5.778-0.405-7.154 2.17-0.951 1.779-0.78 3.856 0.264 5.425l2.656-4.969 4.403 2.353L13.496 78.8c1.885-0.003 3.707-1.016 4.657-2.794C19.53 73.431 18.558 70.228 15.983 68.852z" fill="#ffffff" data-fill-palette-color="quaternary"></path><rect x="56.075" y="74.891" width="7.27" height="10.332" fill="#ffffff" data-fill-palette-color="quaternary"></rect><path d="M40.142 87.56L40.142 87.56c-3.956 0-7.162 3.207-7.162 7.162V95h14.324v-0.278C47.304 90.766 44.097 87.56 40.142 87.56z" fill="#ffffff" data-fill-palette-color="quaternary"></path><rect x="36.358" y="74.891" width="7.27" height="10.332" fill="#ffffff" data-fill-palette-color="quaternary"></rect><path d="M61.887 42.027H38.113c-5.758 0-10.425 4.668-10.425 10.425v9.103c0 5.758 4.668 10.425 10.425 10.425h23.774c5.758 0 10.425-4.668 10.425-10.425v-9.103C72.312 46.695 67.645 42.027 61.887 42.027zM52.27 60.331c0-0.467-0.15-0.924-0.424-1.311l2.283-4.705-3.569 3.822c-0.897-0.228-1.878 0.101-2.433 0.908-0.27 0.394-0.398 0.842-0.397 1.286h-7.353c0-5.315 4.308-9.623 9.623-9.623 5.315 0 9.623 4.308 9.623 9.623H52.27z" fill="#ffffff" data-fill-palette-color="quaternary"></path></g></svg></g></svg></g><path d="M54.044 86.525V86.525L56.307 87.32 54.43 93.696C55.654 94.22 56.876 94.721 58.095 95.199 59.308 95.675 60.531 96.131 61.766 96.565V96.565C63.28 97.097 64.775 97.665 66.25 98.27 67.725 98.874 69.189 99.489 70.642 100.114V100.114C70.412 100.912 70.176 101.705 69.935 102.493 69.694 103.28 69.437 104.062 69.164 104.839V104.839C69.063 105.125 68.959 105.4 68.853 105.663 68.752 105.928 68.656 106.191 68.565 106.451V106.451C67.257 105.942 65.956 105.441 64.663 104.951 63.369 104.461 62.073 103.987 60.775 103.531V103.531C59.477 103.075 58.165 102.649 56.838 102.254 55.502 101.863 54.161 101.477 52.815 101.097V101.097C52.612 101.734 52.412 102.375 52.214 103.02 52.009 103.663 51.793 104.309 51.565 104.958V104.958C51.435 105.327 51.307 105.69 51.182 106.047 51.057 106.403 50.921 106.759 50.774 107.115V107.115C49.153 106.624 47.549 106.11 45.964 105.574 44.379 105.039 42.793 104.506 41.206 103.977V103.977C42.411 100.754 43.635 97.566 44.879 94.414 46.125 91.256 47.355 88.081 48.57 84.89V84.89C49.528 85.134 50.454 85.388 51.348 85.652 52.236 85.914 53.134 86.205 54.044 86.525ZM76.362 60.022V60.022C76.615 60.178 76.864 60.332 77.111 60.485 77.352 60.634 77.585 60.789 77.809 60.952V60.952C77.99 61.096 78.316 61.332 78.786 61.663 79.256 61.993 79.792 62.376 80.395 62.812 80.994 63.254 81.625 63.727 82.289 64.232 82.946 64.733 83.544 65.21 84.082 65.661 84.625 66.116 85.082 66.525 85.452 66.889 85.816 67.249 86.017 67.508 86.054 67.666V67.666C86.278 68.613 86.28 69.577 86.061 70.56 85.848 71.547 85.519 72.509 85.074 73.447 84.633 74.38 84.129 75.278 83.563 76.141 83.004 77.009 82.49 77.821 82.022 78.578V78.578C81.862 78.837 81.59 79.263 81.206 79.859 80.823 80.454 80.384 81.131 79.892 81.889 79.4 82.647 78.869 83.429 78.299 84.235 77.736 85.045 77.181 85.788 76.635 86.466 76.099 87.141 75.603 87.707 75.146 88.163 74.687 88.624 74.317 88.863 74.037 88.88V88.88C73.729 88.904 73.41 88.893 73.081 88.849 72.754 88.813 72.446 88.773 72.156 88.729V88.729C71.357 88.584 70.525 88.391 69.659 88.149 68.799 87.911 67.939 87.629 67.078 87.303 66.22 86.971 65.382 86.616 64.562 86.236 63.751 85.854 63.004 85.452 62.322 85.03V85.03C61.949 84.799 61.484 84.473 60.929 84.05 60.371 83.618 59.776 83.143 59.145 82.626 58.511 82.099 57.877 81.545 57.245 80.964 56.607 80.38 56.027 79.811 55.505 79.258 54.988 78.709 54.56 78.195 54.222 77.716 53.883 77.237 53.707 76.835 53.694 76.51V76.51C53.677 76.23 53.774 75.79 53.986 75.191 54.192 74.589 54.468 73.911 54.814 73.158 55.161 72.405 55.546 71.608 55.97 70.768 56.398 69.922 56.808 69.125 57.199 68.375 57.6 67.624 57.973 66.95 58.318 66.354 58.656 65.755 58.909 65.32 59.076 65.051V65.051C59.306 64.678 59.637 64.188 60.067 63.582 60.497 62.975 60.984 62.329 61.528 61.642 62.071 60.955 62.642 60.269 63.24 59.584 63.84 58.908 64.428 58.296 65.005 57.748 65.587 57.204 66.128 56.765 66.627 56.432 67.13 56.092 67.543 55.943 67.867 55.985V55.985C68.145 56.022 68.509 56.12 68.958 56.278 69.416 56.435 69.916 56.64 70.456 56.895 71.002 57.153 71.573 57.43 72.167 57.726 72.763 58.032 73.329 58.329 73.863 58.62 74.397 58.91 74.883 59.175 75.322 59.415 75.763 59.664 76.11 59.866 76.362 60.022ZM74.092 65.851V65.851C73.702 65.61 73.276 65.374 72.815 65.145 72.352 64.906 71.89 64.795 71.428 64.811V64.811C71.097 64.82 70.68 65.078 70.177 65.584 69.67 66.096 69.169 66.689 68.671 67.365 68.174 68.042 67.716 68.706 67.297 69.359 66.88 70.021 66.588 70.487 66.421 70.756V70.756C66.286 70.974 66.071 71.361 65.776 71.916 65.486 72.474 65.2 73.078 64.917 73.728 64.64 74.382 64.409 75 64.223 75.583 64.037 76.166 63.995 76.568 64.096 76.789V76.789C64.159 76.995 64.359 77.249 64.695 77.552 65.037 77.858 65.412 78.169 65.82 78.485 66.224 78.806 66.621 79.099 67.012 79.365 67.403 79.63 67.685 79.816 67.857 79.922V79.922C68.012 80.018 68.249 80.161 68.568 80.35 68.885 80.53 69.222 80.703 69.58 80.868 69.938 81.034 70.274 81.182 70.589 81.314 70.914 81.443 71.175 81.501 71.373 81.489V81.489C71.506 81.492 71.703 81.372 71.964 81.129 72.22 80.882 72.511 80.571 72.839 80.195 73.167 79.818 73.495 79.41 73.822 78.97 74.153 78.524 74.468 78.092 74.766 77.674 75.064 77.256 75.325 76.878 75.549 76.541 75.764 76.206 75.914 75.969 76 75.832V75.832C76.145 75.596 76.375 75.18 76.689 74.581 77.01 73.986 77.319 73.344 77.617 72.656 77.925 71.966 78.18 71.315 78.384 70.704 78.591 70.086 78.653 69.645 78.571 69.38V69.38C78.51 69.184 78.284 68.909 77.892 68.556 77.502 68.212 77.061 67.86 76.569 67.501 76.078 67.141 75.597 66.809 75.128 66.503 74.65 66.199 74.304 65.982 74.092 65.851ZM122.224 38.892L123.157 40.127C122.796 40.366 122.439 40.593 122.087 40.809V40.809C121.784 40.978 121.492 41.152 121.212 41.33 120.931 41.517 120.728 41.657 120.605 41.751V41.751C119.889 42.292 119.186 42.844 118.496 43.408 117.8 43.975 117.134 44.559 116.496 45.159V45.159C115.936 44.373 115.381 43.609 114.829 42.868 114.279 42.117 113.713 41.357 113.131 40.587V40.587C112.098 39.22 111.05 37.878 109.987 36.559 108.913 35.239 107.848 33.918 106.789 32.596V32.596L110.871 49.967C108.304 48.314 105.709 46.748 103.088 45.271 100.462 43.797 97.802 42.358 95.108 40.952V40.952L105.772 54.161C105.573 54.312 105.365 54.461 105.147 54.609 104.933 54.762 104.715 54.922 104.495 55.088V55.088C103.8 55.613 103.14 56.154 102.513 56.712 101.886 57.27 101.254 57.832 100.617 58.399V58.399C99.424 56.629 98.238 54.87 97.061 53.121 95.884 51.373 94.653 49.648 93.368 47.948V47.948C91.864 45.956 90.352 43.983 88.833 42.028 87.313 40.073 85.793 38.106 84.273 36.127V36.127C85.586 35.135 86.843 34.13 88.044 33.113 89.236 32.094 90.443 31.022 91.664 29.897V29.897C93.205 31.031 94.751 32.138 96.301 33.216 97.855 34.299 99.435 35.354 101.04 36.382V36.382C100.584 34.604 100.228 32.79 99.97 30.938 99.711 29.096 99.474 27.255 99.259 25.414V25.414C100.473 24.437 101.675 23.47 102.863 22.514 104.045 21.561 105.252 20.607 106.483 19.652V19.652C107.781 21.258 109.079 22.831 110.377 24.369 111.673 25.918 112.981 27.487 114.301 29.077V29.077C115.335 30.333 116.363 31.594 117.386 32.858 118.415 34.119 119.431 35.375 120.437 36.628V36.628ZM143.775 21.909V21.909C144.098 22.673 144.32 23.52 144.442 24.45 144.558 25.382 144.548 26.305 144.414 27.219 144.28 28.132 144.004 28.995 143.586 29.809 143.166 30.616 142.591 31.276 141.863 31.789V31.789C141.573 31.985 141.222 32.195 140.812 32.42 140.393 32.641 139.958 32.861 139.509 33.08 139.051 33.295 138.6 33.511 138.157 33.728 137.711 33.938 137.33 34.11 137.013 34.244V34.244C135.235 35.097 133.441 35.91 131.629 36.683 129.82 37.461 127.995 38.239 126.156 39.016V39.016C125.71 38.187 125.272 37.365 124.84 36.551 124.409 35.738 123.943 34.913 123.444 34.077V34.077C124.872 33.401 126.294 32.719 127.71 32.033 129.123 31.356 130.534 30.658 131.943 29.938V29.938C132.25 29.779 132.599 29.617 132.99 29.452 133.382 29.286 133.778 29.108 134.181 28.916 134.58 28.718 134.969 28.521 135.348 28.324 135.726 28.128 136.051 27.936 136.323 27.747V27.747C136.44 27.676 136.576 27.575 136.733 27.443 136.892 27.317 137.025 27.173 137.132 27.01 137.236 26.857 137.314 26.696 137.367 26.527 137.418 26.352 137.404 26.171 137.325 25.984V25.984C137.136 25.537 136.882 25.066 136.563 24.571 136.241 24.069 135.97 23.617 135.748 23.213V23.213C134.226 24.031 132.699 24.844 131.166 25.653 129.627 26.464 128.056 27.208 126.452 27.886V27.886C125.359 28.347 124.354 28.405 123.44 28.06 122.518 27.716 121.698 27.1 120.978 26.211V26.211C120.819 26.007 120.642 25.752 120.447 25.447 120.258 25.138 120.074 24.817 119.896 24.482 119.712 24.15 119.54 23.82 119.379 23.492 119.219 23.164 119.077 22.888 118.952 22.662V22.662C118.259 21.315 117.602 19.977 116.983 18.65 116.355 17.319 115.725 15.967 115.094 14.593V14.593C116.151 14.271 117.211 13.937 118.273 13.591 119.335 13.245 120.386 12.889 121.425 12.523V12.523C121.842 13.511 122.31 14.551 122.83 15.642 123.353 16.725 123.921 17.697 124.534 18.558V18.558C124.852 19.017 125.236 19.371 125.685 19.62 126.138 19.861 126.621 20.016 127.134 20.085 127.646 20.154 128.167 20.147 128.695 20.063 129.214 19.975 129.717 19.829 130.201 19.624V19.624C130.773 19.383 131.321 19.085 131.845 18.732 132.361 18.375 132.847 18.001 133.305 17.61V17.61C132.555 16.06 131.826 14.526 131.12 13.009 130.419 11.489 129.665 9.98 128.857 8.483V8.483C129.483 8.197 130.103 7.906 130.717 7.61 131.338 7.311 131.965 7.028 132.599 6.76V6.76C133.593 6.34 134.636 6.009 135.728 5.768V5.768C136.111 6.675 136.51 7.576 136.924 8.47 137.338 9.364 137.759 10.256 138.185 11.145V11.145C138.407 11.549 138.626 11.962 138.841 12.384 139.053 12.799 139.257 13.214 139.454 13.629V13.629C140.148 15.028 140.888 16.399 141.675 17.743 142.472 19.091 143.172 20.48 143.775 21.909ZM183.632 17.41V17.41L183.954 22.763C182.918 23.043 181.892 23.309 180.875 23.56 179.857 23.812 178.828 24.04 177.787 24.246V24.246C176.7 24.462 175.612 24.664 174.522 24.853 173.433 25.042 172.34 25.173 171.243 25.248V25.248C170.927 25.269 170.458 25.287 169.837 25.302 169.217 25.324 168.574 25.324 167.91 25.301 167.239 25.272 166.604 25.227 166.005 25.167 165.406 25.106 164.963 25.004 164.676 24.861V24.861C164.416 24.716 164.164 24.544 163.921 24.344 163.677 24.144 163.457 23.936 163.26 23.72V23.72C162.735 23.16 162.29 22.535 161.926 21.843 161.555 21.158 161.253 20.445 161.02 19.704 160.787 18.962 160.604 18.204 160.47 17.429 160.337 16.66 160.245 15.899 160.194 15.145V15.145C160.132 14.23 160.121 13.277 160.163 12.288 160.197 11.298 160.296 10.314 160.459 9.337 160.623 8.365 160.864 7.42 161.18 6.499 161.497 5.585 161.902 4.733 162.396 3.942V3.942C162.543 3.722 162.731 3.456 162.96 3.143 163.196 2.83 163.434 2.597 163.674 2.446V2.446C164.27 2.061 164.943 1.728 165.695 1.447 166.44 1.166 167.222 0.934 168.041 0.75 168.854 0.573 169.662 0.427 170.466 0.312 171.276 0.203 172.025 0.125 172.711 0.079V0.079C174.01-0.009 175.318-0.023 176.633 0.036 177.942 0.096 179.228 0.266 180.491 0.545V0.545C180.486 1.168 180.494 1.792 180.517 2.42 180.532 3.047 180.561 3.671 180.603 4.29V4.29C180.704 5.777 180.839 7.272 181.008 8.775V8.775C179.959 8.454 178.866 8.248 177.731 8.156 176.602 8.057 175.489 8.044 174.392 8.118V8.118C174.163 8.134 173.831 8.173 173.396 8.237 172.968 8.299 172.48 8.38 171.932 8.478 171.39 8.569 170.83 8.681 170.251 8.815 169.679 8.948 169.145 9.099 168.649 9.268 168.153 9.437 167.724 9.628 167.359 9.842 166.995 10.05 166.762 10.258 166.661 10.468V10.468C166.586 10.655 166.53 10.92 166.492 11.26 166.461 11.594 166.44 11.943 166.431 12.309 166.416 12.682 166.417 13.04 166.433 13.384 166.443 13.721 166.454 13.994 166.468 14.203V14.203C166.483 14.411 166.534 14.82 166.623 15.43 166.712 16.046 166.813 16.698 166.928 17.386 167.042 18.082 167.17 18.712 167.309 19.277 167.456 19.842 167.589 20.164 167.709 20.244V20.244C167.829 20.31 168.02 20.338 168.283 20.327 168.546 20.322 168.722 20.317 168.809 20.311V20.311C169.933 20.235 171.131 20.097 172.402 19.896 173.672 19.694 174.957 19.452 176.257 19.168 177.556 18.884 178.841 18.59 180.111 18.288 181.376 17.986 182.549 17.693 183.632 17.41ZM212.487 12.202V12.202C212.231 14.059 211.462 15.445 210.178 16.357 208.895 17.27 207.319 17.642 205.449 17.473V17.473C207.179 21.524 208.613 25.63 209.749 29.79V29.79L199.782 28.663C199.848 26.8 199.807 25.072 199.659 23.478 199.51 21.885 199.223 20.191 198.796 18.396V18.396C198.041 18.339 197.291 18.294 196.547 18.26 195.803 18.225 195.063 18.181 194.328 18.128V18.128L193.435 25.88C192.129 25.768 190.832 25.623 189.542 25.446V25.446C188.881 25.355 188.24 25.256 187.622 25.151 187.004 25.038 186.379 24.905 185.747 24.75V24.75C186.194 22.687 186.631 20.626 187.057 18.567 187.477 16.507 187.839 14.446 188.143 12.384V12.384C188.723 8.719 189.332 5.058 189.972 1.401V1.401C192.119 1.581 194.265 1.75 196.408 1.909 198.546 2.061 200.68 2.283 202.812 2.576V2.576C203.36 2.652 203.949 2.747 204.581 2.861 205.213 2.968 205.845 3.12 206.479 3.316 207.113 3.506 207.715 3.731 208.285 3.994 208.862 4.257 209.371 4.569 209.811 4.929V4.929C210.867 5.816 211.622 6.911 212.076 8.213 212.538 9.509 212.675 10.838 212.487 12.202ZM204.663 10.573V10.573C204.688 10.393 204.715 10.141 204.746 9.818 204.784 9.497 204.802 9.169 204.8 8.835 204.798 8.501 204.77 8.188 204.715 7.894 204.668 7.595 204.573 7.367 204.431 7.212V7.212C204.33 7.102 204.146 7.005 203.879 6.921 203.617 6.844 203.335 6.764 203.033 6.682 202.73 6.606 202.436 6.545 202.149 6.499 201.871 6.447 201.674 6.413 201.561 6.398V6.398C200.652 6.272 199.753 6.196 198.865 6.17 197.984 6.137 197.104 6.128 196.224 6.143V6.143L196.226 12.874C196.712 13.057 197.225 13.209 197.767 13.331 198.302 13.452 198.83 13.549 199.351 13.621V13.621C199.578 13.652 199.914 13.685 200.359 13.719 200.809 13.76 201.27 13.779 201.74 13.776 202.217 13.774 202.661 13.736 203.073 13.663 203.491 13.592 203.791 13.466 203.973 13.287V13.287C204.059 13.203 204.14 13.034 204.216 12.779 204.299 12.525 204.366 12.258 204.418 11.979 204.471 11.694 204.52 11.415 204.564 11.142 204.614 10.876 204.647 10.687 204.663 10.573ZM238.362 12.71L237.184 17.146C235.03 16.498 232.89 15.861 230.764 15.237 228.64 14.606 226.491 14.003 224.319 13.427V13.427L223.339 15.956 231.859 18.455C231.706 19.224 231.527 19.973 231.324 20.703 231.127 21.434 230.896 22.169 230.633 22.906V22.906C230.526 23.204 230.408 23.513 230.28 23.832 230.158 24.154 230.042 24.467 229.933 24.772V24.772L221.671 23.387 220.723 27.571C222.4 28.049 224.088 28.477 225.787 28.856 227.488 29.227 229.196 29.638 230.913 30.087V30.087C230.681 31.215 230.443 32.351 230.199 33.496 229.963 34.636 229.799 35.774 229.709 36.909V36.909C226.654 35.796 223.612 34.715 220.584 33.668 217.549 32.619 214.501 31.547 211.44 30.452V30.452C212.405 27.953 213.38 25.469 214.363 22.998 215.341 20.525 216.285 18.015 217.196 15.468V15.468L217.414 14.858C217.938 13.391 218.442 11.923 218.924 10.455 219.399 8.985 219.882 7.495 220.371 5.987V5.987C222.064 6.621 223.761 7.235 225.461 7.829 227.155 8.42 228.866 9.025 230.594 9.642V9.642C231.909 10.113 233.21 10.61 234.498 11.135 235.782 11.652 237.07 12.177 238.362 12.71ZM250.47 48.975V48.975L245.565 47.018C245.841 45.827 246.111 44.637 246.377 43.448 246.646 42.269 246.926 41.089 247.219 39.908V39.908L239.775 35.901 236.539 39.306 231.972 36.632C234.218 33.437 236.462 30.264 238.705 27.114 240.945 23.97 243.179 20.807 245.409 17.626V17.626C246.975 18.223 248.511 18.856 250.018 19.527 251.519 20.195 252.991 20.951 254.434 21.797V21.797C256.198 22.829 257.942 23.889 259.666 24.977V24.977C258.777 27.216 257.889 29.447 257.001 31.671 256.104 33.897 255.223 36.136 254.358 38.389V38.389C253.649 40.147 252.974 41.901 252.332 43.651 251.69 45.402 251.069 47.176 250.47 48.975ZM242.762 32.081L248.542 35.265C248.63 35.075 248.775 34.714 248.976 34.183 249.183 33.656 249.398 33.089 249.619 32.484 249.837 31.885 250.012 31.327 250.143 30.809 250.271 30.283 250.299 29.947 250.227 29.803V29.803C250.2 29.756 250.119 29.681 249.984 29.579 249.842 29.473 249.697 29.36 249.548 29.242 249.389 29.125 249.228 29.019 249.065 28.924 248.908 28.832 248.801 28.769 248.742 28.735V28.735C248.643 28.677 248.51 28.599 248.341 28.5 248.172 28.401 247.993 28.3 247.803 28.197 247.61 28.099 247.417 28.021 247.224 27.963 247.032 27.905 246.889 27.888 246.797 27.912V27.912C246.746 27.906 246.622 28.005 246.424 28.21 246.226 28.414 245.982 28.663 245.694 28.955 245.396 29.25 245.088 29.57 244.769 29.914 244.453 30.253 244.149 30.579 243.856 30.892 243.573 31.203 243.33 31.471 243.127 31.697 242.931 31.926 242.809 32.054 242.762 32.081ZM278.822 47.973V47.973L277.237 49.774 272.027 45.647C271.084 46.587 270.162 47.532 269.262 48.483 268.366 49.429 267.486 50.394 266.622 51.376V51.376C265.561 52.581 264.475 53.755 263.362 54.896 262.25 56.038 261.132 57.165 260.008 58.279V58.279C259.354 57.766 258.707 57.251 258.067 56.733 257.427 56.214 256.798 55.683 256.18 55.14V55.14C255.952 54.939 255.736 54.74 255.533 54.543 255.324 54.351 255.117 54.163 254.909 53.98V53.98C255.871 52.958 256.822 51.939 257.761 50.924 258.7 49.908 259.623 48.883 260.533 47.85V47.85C261.442 46.817 262.328 45.76 263.19 44.677 264.053 43.585 264.912 42.486 265.769 41.379V41.379C265.254 40.953 264.735 40.528 264.21 40.102 263.691 39.672 263.172 39.229 262.656 38.775V38.775C262.362 38.516 262.074 38.262 261.79 38.013 261.506 37.763 261.227 37.504 260.952 37.235V37.235C262.015 35.915 263.091 34.62 264.181 33.351 265.271 32.082 266.358 30.81 267.443 29.537V29.537C269.981 31.86 272.479 34.188 274.936 36.521 277.399 38.859 279.882 41.188 282.386 43.509V43.509C281.802 44.306 281.22 45.07 280.64 45.8 280.065 46.525 279.459 47.249 278.822 47.973ZM295.038 78.596V78.596C294.799 78.772 294.562 78.945 294.328 79.117 294.1 79.285 293.868 79.442 293.633 79.589V79.589C293.433 79.703 293.091 79.916 292.609 80.228 292.127 80.541 291.571 80.894 290.941 81.29 290.307 81.68 289.631 82.088 288.915 82.514 288.203 82.936 287.538 83.311 286.918 83.641 286.292 83.975 285.742 84.245 285.266 84.452 284.796 84.655 284.481 84.744 284.32 84.719V84.719C283.359 84.572 282.463 84.213 281.634 83.642 280.799 83.075 280.03 82.409 279.327 81.645 278.628 80.886 277.984 80.083 277.395 79.235 276.8 78.391 276.24 77.61 275.713 76.893V76.893C275.533 76.648 275.239 76.236 274.831 75.657 274.422 75.078 273.959 74.419 273.44 73.678 272.922 72.938 272.396 72.152 271.862 71.323 271.322 70.497 270.841 69.704 270.417 68.944 269.991 68.194 269.653 67.522 269.401 66.928 269.146 66.329 269.062 65.897 269.151 65.63V65.63C269.245 65.336 269.374 65.044 269.539 64.756 269.694 64.466 269.847 64.195 269.996 63.943V63.943C270.43 63.257 270.921 62.558 271.469 61.845 272.012 61.137 272.596 60.445 273.22 59.769 273.849 59.098 274.493 58.454 275.153 57.836 275.81 57.227 276.463 56.685 277.11 56.21V56.21C277.463 55.951 277.94 55.643 278.54 55.286 279.149 54.931 279.812 54.557 280.529 54.165 281.254 53.774 282.005 53.395 282.781 53.026 283.561 52.654 284.306 52.329 285.015 52.052 285.718 51.778 286.354 51.574 286.925 51.44 287.496 51.305 287.934 51.293 288.241 51.403V51.403C288.507 51.492 288.878 51.746 289.354 52.167 289.836 52.583 290.361 53.093 290.929 53.697 291.498 54.3 292.092 54.956 292.712 55.664 293.336 56.377 293.922 57.056 294.47 57.699 295.017 58.352 295.502 58.95 295.925 59.493 296.354 60.032 296.662 60.429 296.85 60.684V60.684C297.11 61.038 297.44 61.527 297.841 62.153 298.242 62.78 298.659 63.473 299.093 64.235 299.526 64.996 299.948 65.782 300.36 66.593 300.761 67.403 301.108 68.177 301.4 68.917 301.687 69.66 301.891 70.326 302.013 70.914 302.139 71.508 302.123 71.947 301.963 72.231V72.231C301.825 72.475 301.598 72.776 301.282 73.133 300.966 73.499 300.588 73.885 300.149 74.291 299.705 74.701 299.235 75.126 298.738 75.566 298.232 76.004 297.744 76.417 297.274 76.803 296.805 77.19 296.377 77.542 295.991 77.859 295.595 78.175 295.277 78.42 295.038 78.596ZM290.484 74.308V74.308C290.854 74.036 291.231 73.73 291.616 73.388 292.011 73.048 292.288 72.661 292.446 72.227V72.227C292.561 71.917 292.478 71.433 292.198 70.778 291.913 70.116 291.55 69.429 291.11 68.714 290.669 68 290.225 67.327 289.777 66.693 289.319 66.059 288.996 65.613 288.809 65.358V65.358C288.657 65.151 288.379 64.807 287.975 64.325 287.566 63.848 287.113 63.356 286.616 62.85 286.114 62.349 285.628 61.903 285.157 61.512 284.686 61.121 284.329 60.931 284.086 60.942V60.942C283.872 60.924 283.561 61.014 283.154 61.212 282.742 61.414 282.313 61.645 281.868 61.905 281.419 62.16 280.998 62.418 280.606 62.682 280.213 62.945 279.935 63.136 279.772 63.256V63.256C279.625 63.364 279.404 63.53 279.109 63.755 278.824 63.982 278.537 64.23 278.25 64.499 277.962 64.769 277.698 65.025 277.459 65.268 277.217 65.521 277.065 65.741 277.003 65.929V65.929C276.95 66.052 276.987 66.279 277.115 66.612 277.248 66.942 277.427 67.329 277.654 67.773 277.88 68.218 278.135 68.675 278.421 69.143 278.71 69.617 278.993 70.071 279.269 70.504 279.545 70.937 279.797 71.321 280.026 71.655 280.256 71.98 280.419 72.207 280.515 72.338V72.338C280.679 72.561 280.979 72.93 281.416 73.446 281.848 73.966 282.327 74.493 282.853 75.027 283.378 75.571 283.886 76.051 284.376 76.469 284.871 76.893 285.257 77.116 285.533 77.139V77.139C285.738 77.156 286.078 77.049 286.552 76.817 287.018 76.585 287.509 76.308 288.026 75.987 288.543 75.665 289.032 75.344 289.491 75.024 289.952 74.694 290.283 74.455 290.484 74.308ZM309.141 105.703V105.703C307.407 106.418 305.823 106.451 304.388 105.802 302.953 105.154 301.838 103.979 301.042 102.279V102.279C298.413 105.814 295.589 109.12 292.567 112.198V112.198L288.521 103.02C290.163 102.139 291.636 101.232 292.937 100.302 294.239 99.371 295.558 98.269 296.893 96.996V96.996C296.562 96.316 296.223 95.645 295.878 94.985 295.533 94.325 295.198 93.664 294.874 93.002V93.002L287.728 96.135C287.167 94.951 286.638 93.757 286.142 92.553V92.553C285.887 91.936 285.65 91.333 285.429 90.746 285.215 90.155 285.016 89.548 284.831 88.924V88.924C286.839 88.271 288.839 87.61 290.833 86.942 292.823 86.267 294.786 85.541 296.721 84.766V84.766C300.179 83.42 303.649 82.103 307.13 80.813V80.813C308.056 82.759 308.991 84.697 309.933 86.629 310.879 88.552 311.762 90.508 312.582 92.497V92.497C312.793 93.008 313.008 93.566 313.228 94.168 313.453 94.768 313.641 95.391 313.79 96.038 313.946 96.681 314.054 97.315 314.115 97.939 314.178 98.57 314.165 99.166 314.076 99.729V99.729C313.841 101.088 313.275 102.291 312.379 103.339 311.492 104.391 310.413 105.179 309.141 105.703ZM306.607 98.124V98.124C306.775 98.055 307.006 97.952 307.3 97.816 307.597 97.686 307.889 97.537 308.177 97.367 308.464 97.197 308.721 97.015 308.947 96.82 309.182 96.628 309.331 96.432 309.394 96.231V96.231C309.437 96.089 309.428 95.881 309.366 95.607 309.301 95.342 309.228 95.059 309.147 94.756 309.06 94.457 308.964 94.171 308.86 93.901 308.764 93.634 308.695 93.447 308.651 93.341V93.341C308.301 92.493 307.914 91.678 307.49 90.897 307.075 90.12 306.639 89.355 306.183 88.602V88.602L300.369 91.995C300.456 92.506 300.583 93.027 300.75 93.556 300.915 94.079 301.098 94.584 301.298 95.07V95.07C301.386 95.282 301.527 95.589 301.721 95.99 301.912 96.401 302.128 96.808 302.367 97.212 302.61 97.623 302.866 97.988 303.136 98.307 303.409 98.633 303.668 98.828 303.915 98.895V98.895C304.03 98.927 304.217 98.912 304.476 98.849 304.737 98.793 305.001 98.717 305.268 98.621 305.542 98.523 305.807 98.424 306.066 98.325 306.32 98.235 306.501 98.168 306.607 98.124ZM72.053 193.841V193.841L69.883 194.595 67.502 188.727C66.275 189.061 65.065 189.41 63.871 189.775 62.679 190.146 61.493 190.536 60.314 190.946V190.946C58.868 191.448 57.415 191.91 55.954 192.332 54.496 192.76 53.036 193.171 51.573 193.565V193.565C51.27 192.835 50.973 192.102 50.682 191.368 50.397 190.631 50.127 189.894 49.87 189.154V189.154C49.777 188.887 49.688 188.621 49.604 188.358 49.526 188.092 49.445 187.838 49.361 187.596V187.596C50.636 187.196 51.903 186.795 53.163 186.393 54.423 185.991 55.674 185.574 56.917 185.143V185.143C58.153 184.713 59.384 184.25 60.611 183.752 61.844 183.252 63.074 182.743 64.3 182.224V182.224C64.073 181.632 63.845 181.036 63.615 180.437 63.384 179.832 63.161 179.221 62.946 178.603V178.603C62.824 178.252 62.704 177.905 62.584 177.561 62.467 177.223 62.356 176.873 62.251 176.509V176.509C63.76 175.921 65.265 175.351 66.767 174.801 68.264 174.26 69.764 173.717 71.268 173.173V173.173C72.28 176.292 73.26 179.401 74.207 182.499 75.162 185.595 76.132 188.696 77.118 191.803V191.803C76.255 192.196 75.414 192.559 74.594 192.894 73.773 193.222 72.926 193.538 72.053 193.841ZM83.383 221.979V221.979C83.142 222.127 82.903 222.274 82.667 222.418 82.432 222.563 82.199 222.694 81.97 222.81V222.81C81.77 222.909 81.428 223.087 80.944 223.344 80.461 223.601 79.903 223.892 79.271 224.216 78.634 224.544 77.959 224.882 77.247 225.231 76.538 225.571 75.874 225.876 75.255 226.144 74.633 226.407 74.09 226.618 73.625 226.776 73.155 226.938 72.843 226.998 72.691 226.957V226.957C71.792 226.741 70.969 226.328 70.222 225.717 69.48 225.113 68.802 224.42 68.189 223.641 67.583 222.858 67.03 222.041 66.533 221.191 66.041 220.337 65.573 219.548 65.129 218.824V218.824C64.981 218.582 64.731 218.169 64.381 217.585 64.04 217.003 63.65 216.335 63.213 215.583 62.779 214.836 62.343 214.048 61.904 213.217 61.456 212.383 61.06 211.594 60.713 210.849 60.37 210.095 60.101 209.424 59.908 208.839 59.715 208.253 59.67 207.837 59.773 207.592V207.592C59.888 207.316 60.033 207.049 60.207 206.792 60.378 206.528 60.548 206.282 60.716 206.053V206.053C61.183 205.434 61.704 204.806 62.278 204.169 62.857 203.537 63.47 202.924 64.117 202.329 64.769 201.739 65.43 201.179 66.102 200.649 66.783 200.121 67.448 199.657 68.098 199.259V199.259C68.455 199.04 68.935 198.785 69.54 198.493 70.141 198.196 70.8 197.891 71.518 197.577 72.239 197.27 72.984 196.967 73.751 196.671 74.522 196.38 75.256 196.132 75.953 195.926 76.641 195.718 77.264 195.573 77.823 195.491 78.373 195.407 78.791 195.432 79.078 195.564V195.564C79.318 195.671 79.65 195.942 80.075 196.377 80.495 196.816 80.952 197.343 81.448 197.957 81.946 198.577 82.462 199.25 82.994 199.976 83.526 200.702 84.027 201.396 84.496 202.058 84.965 202.719 85.382 203.322 85.747 203.866 86.107 204.413 86.367 204.819 86.53 205.083V205.083C86.745 205.434 87.019 205.927 87.353 206.561 87.688 207.186 88.03 207.878 88.377 208.639 88.734 209.401 89.074 210.182 89.398 210.98 89.725 211.785 89.992 212.55 90.201 213.277 90.418 214.006 90.564 214.656 90.638 215.228 90.706 215.804 90.653 216.22 90.478 216.478V216.478C90.327 216.697 90.089 216.966 89.762 217.285 89.426 217.601 89.034 217.937 88.587 218.29 88.133 218.647 87.65 219.015 87.138 219.392 86.626 219.77 86.131 220.124 85.654 220.456 85.183 220.785 84.746 221.085 84.342 221.356 83.944 221.623 83.625 221.831 83.383 221.979ZM79.393 217.542V217.542C79.766 217.313 80.148 217.052 80.537 216.757 80.936 216.466 81.233 216.117 81.428 215.713V215.713C81.555 215.429 81.51 214.962 81.293 214.312 81.076 213.662 80.788 212.98 80.43 212.266 80.066 211.555 79.693 210.878 79.314 210.232 78.937 209.593 78.67 209.144 78.511 208.885V208.885C78.384 208.678 78.144 208.331 77.789 207.844 77.441 207.353 77.049 206.849 76.614 206.333 76.179 205.817 75.752 205.354 75.336 204.945 74.915 204.53 74.588 204.319 74.354 204.312V204.312C74.151 204.278 73.849 204.341 73.448 204.5 73.047 204.659 72.623 204.844 72.175 205.055 71.727 205.267 71.306 205.477 70.912 205.687 70.517 205.906 70.235 206.067 70.068 206.169V206.169C69.919 206.26 69.698 206.404 69.406 206.599 69.111 206.788 68.817 206.999 68.526 207.234 68.231 207.462 67.956 207.686 67.703 207.904 67.455 208.12 67.295 208.317 67.222 208.496V208.496C67.162 208.604 67.181 208.822 67.279 209.149 67.377 209.477 67.513 209.86 67.688 210.299 67.871 210.741 68.083 211.196 68.324 211.666 68.558 212.139 68.79 212.594 69.019 213.032 69.248 213.469 69.458 213.851 69.649 214.176 69.839 214.511 69.974 214.745 70.055 214.877V214.877C70.193 215.101 70.449 215.474 70.824 215.996 71.197 216.526 71.614 217.07 72.074 217.627 72.525 218.181 72.967 218.677 73.402 219.115 73.837 219.553 74.186 219.794 74.45 219.837V219.837C74.647 219.875 74.978 219.802 75.444 219.619 75.91 219.437 76.4 219.211 76.916 218.942 77.435 218.679 77.927 218.41 78.39 218.133 78.852 217.866 79.186 217.669 79.393 217.542ZM110.846 262.514L109.955 263.693C109.634 263.424 109.331 263.153 109.048 262.88V262.88C108.809 262.648 108.569 262.428 108.328 262.221 108.091 262.008 107.911 261.855 107.787 261.762V261.762C107.11 261.249 106.419 260.748 105.715 260.258 105.017 259.772 104.31 259.314 103.596 258.884V258.884C104.165 258.164 104.719 257.454 105.258 256.753 105.805 256.051 106.356 255.334 106.909 254.602V254.602C107.898 253.295 108.859 251.979 109.792 250.656 110.726 249.332 111.662 248.01 112.601 246.69V246.69L97.706 254.963C98.552 252.177 99.314 249.387 99.99 246.592 100.666 243.797 101.298 240.976 101.885 238.131V238.131L92.528 251.377C92.334 251.23 92.14 251.079 91.945 250.923 91.754 250.762 91.554 250.602 91.344 250.443V250.443C90.677 249.939 90.005 249.473 89.33 249.047 88.658 248.615 87.979 248.182 87.293 247.748V247.748C88.604 246.193 89.91 244.644 91.213 243.101 92.511 241.563 93.775 239.981 95.004 238.356V238.356C96.44 236.457 97.857 234.556 99.254 232.652 100.66 230.748 102.071 228.837 103.485 226.922V226.922C104.744 227.874 105.998 228.767 107.245 229.6 108.492 230.433 109.792 231.264 111.145 232.092V232.092C110.501 233.804 109.886 235.513 109.299 237.217 108.708 238.926 108.151 240.653 107.627 242.397V242.397C109.142 241.512 110.711 240.712 112.336 239.995 113.97 239.277 115.606 238.578 117.245 237.898V237.898C118.453 238.761 119.653 239.613 120.843 240.454 122.024 241.296 123.216 242.159 124.417 243.042V243.042C123.283 244.654 122.173 246.255 121.089 247.845 120.01 249.439 118.912 251.049 117.794 252.673V252.673C116.906 253.947 116.017 255.223 115.126 256.503 114.233 257.773 113.341 259.031 112.45 260.276V260.276ZM141.837 268.17V268.17C141.531 268.89 141.098 269.6 140.537 270.3 139.983 271.003 139.347 271.612 138.629 272.128 137.912 272.644 137.136 273.03 136.303 273.284 135.469 273.539 134.634 273.583 133.795 273.418V273.418C133.473 273.347 133.095 273.246 132.661 273.112 132.235 272.976 131.798 272.823 131.349 272.655 130.892 272.49 130.441 272.324 129.999 272.159 129.563 271.995 129.192 271.849 128.888 271.72V271.72C127.121 271.066 125.369 270.377 123.632 269.654 121.896 268.925 120.153 268.189 118.402 267.446V267.446C118.672 266.586 118.943 265.741 119.215 264.911 119.489 264.074 119.743 263.208 119.977 262.311V262.311C121.395 262.839 122.807 263.361 124.214 263.878 125.624 264.389 127.046 264.889 128.479 265.38V265.38C128.791 265.491 129.134 265.625 129.506 265.783 129.879 265.941 130.265 266.094 130.664 266.241 131.065 266.383 131.458 266.52 131.841 266.653 132.227 266.78 132.572 266.872 132.878 266.928V266.928C133.01 266.963 133.171 266.99 133.359 267.012 133.554 267.036 133.743 267.032 133.925 266.999 134.101 266.964 134.267 266.91 134.423 266.837 134.575 266.755 134.689 266.624 134.766 266.444V266.444C134.945 266.021 135.097 265.533 135.223 264.978 135.352 264.432 135.481 263.948 135.608 263.526V263.526C134.039 263.028 132.466 262.522 130.889 262.006 129.313 261.491 127.761 260.909 126.233 260.261V260.261C125.184 259.816 124.475 259.163 124.107 258.304 123.733 257.441 123.61 256.47 123.739 255.389V255.389C123.772 255.139 123.83 254.848 123.912 254.517 123.994 254.185 124.091 253.845 124.202 253.497 124.31 253.154 124.424 252.818 124.542 252.487 124.661 252.156 124.755 251.874 124.825 251.64V251.64C125.29 250.269 125.77 248.93 126.266 247.624 126.764 246.311 127.274 244.981 127.794 243.634V243.634C128.721 244.144 129.654 244.647 130.595 245.141 131.542 245.638 132.483 246.122 133.419 246.593V246.593C133.019 247.537 132.618 248.55 132.217 249.633 131.825 250.712 131.536 251.747 131.35 252.738V252.738C131.243 253.265 131.259 253.762 131.397 254.231 131.527 254.704 131.738 255.138 132.032 255.534 132.323 255.936 132.671 256.289 133.077 256.593 133.485 256.891 133.923 257.139 134.388 257.336V257.336C134.935 257.568 135.5 257.746 136.085 257.87 136.679 257.99 137.262 258.076 137.833 258.128V258.128C138.393 256.585 138.96 255.067 139.535 253.574 140.11 252.081 140.642 250.56 141.132 249.009V249.009C141.742 249.246 142.355 249.477 142.971 249.701 143.592 249.928 144.204 250.17 144.807 250.425V250.425C145.75 250.826 146.668 251.322 147.561 251.913V251.913C147.192 252.782 146.84 253.655 146.504 254.531 146.166 255.414 145.833 256.295 145.504 257.174V257.174C145.376 257.596 145.241 258.018 145.098 258.441 144.946 258.868 144.797 259.288 144.65 259.702V259.702C144.151 261.102 143.703 262.521 143.306 263.957 142.909 265.393 142.419 266.798 141.837 268.17ZM183.205 273.954V273.954L182.834 279.06C181.818 279.197 180.813 279.318 179.819 279.423 178.825 279.534 177.822 279.624 176.811 279.694V279.694C175.759 279.754 174.704 279.808 173.647 279.854 172.59 279.894 171.54 279.88 170.496 279.813V279.813C170.187 279.793 169.74 279.753 169.155 279.695 168.565 279.63 167.955 279.547 167.326 279.445 166.698 279.337 166.104 279.214 165.545 279.076 164.979 278.945 164.57 278.793 164.318 278.622V278.622C164.092 278.452 163.875 278.255 163.666 278.032 163.464 277.816 163.282 277.591 163.122 277.358V277.358C162.701 276.763 162.361 276.116 162.102 275.416 161.836 274.723 161.639 274.011 161.51 273.279 161.382 272.547 161.305 271.809 161.278 271.064 161.253 270.312 161.263 269.576 161.31 268.855V268.855C161.366 267.987 161.472 267.085 161.627 266.148 161.789 265.219 162.007 264.301 162.282 263.392 162.564 262.491 162.91 261.628 163.322 260.803 163.741 259.972 164.232 259.213 164.797 258.526V258.526C164.965 258.341 165.179 258.115 165.44 257.848 165.693 257.581 165.946 257.387 166.197 257.268V257.268C166.81 256.984 167.488 256.754 168.229 256.579 168.977 256.411 169.748 256.292 170.544 256.222 171.332 256.151 172.119 256.114 172.903 256.111 173.681 256.107 174.396 256.126 175.049 256.169V256.169C176.294 256.249 177.535 256.4 178.771 256.622 180 256.844 181.196 257.168 182.358 257.595V257.595C182.273 258.184 182.2 258.778 182.141 259.376 182.082 259.973 182.034 260.565 181.996 261.151V261.151C181.904 262.571 181.842 264.003 181.809 265.448V265.448C180.85 265.014 179.844 264.682 178.791 264.451 177.731 264.22 176.676 264.071 175.626 264.003V264.003C175.411 263.989 175.094 263.982 174.675 263.982 174.255 263.989 173.781 264.002 173.253 264.022 172.731 264.042 172.188 264.078 171.623 264.129 171.059 264.18 170.534 264.258 170.047 264.362 169.561 264.459 169.13 264.583 168.755 264.734 168.387 264.886 168.14 265.056 168.013 265.244V265.244C167.914 265.413 167.827 265.654 167.753 265.967 167.678 266.28 167.613 266.61 167.557 266.958 167.501 267.306 167.458 267.645 167.43 267.974 167.396 268.296 167.372 268.558 167.359 268.76V268.76C167.346 268.956 167.345 269.348 167.354 269.936 167.356 270.531 167.369 271.164 167.393 271.835 167.417 272.506 167.459 273.117 167.518 273.668 167.584 274.22 167.667 274.543 167.769 274.637V274.637C167.873 274.712 168.052 274.76 168.307 274.784 168.556 274.813 168.723 274.831 168.811 274.837V274.837C169.881 274.906 171.029 274.926 172.254 274.897 173.487 274.862 174.735 274.794 175.999 274.694 177.27 274.587 178.521 274.468 179.753 274.338 180.991 274.216 182.142 274.088 183.205 273.954ZM210.326 261.478V261.478C210.577 263.254 210.23 264.727 209.285 265.896 208.347 267.071 206.997 267.828 205.232 268.166V268.166C207.882 271.436 210.273 274.831 212.406 278.351V278.351L202.949 279.913C202.535 278.187 202.05 276.611 201.494 275.184 200.938 273.763 200.232 272.283 199.373 270.742V270.742C198.665 270.89 197.962 271.047 197.264 271.214 196.571 271.373 195.88 271.526 195.192 271.671V271.671L196.396 279.021C195.176 279.262 193.949 279.47 192.713 279.645V279.645C192.085 279.733 191.469 279.807 190.864 279.865 190.267 279.929 189.66 279.974 189.044 280V280C188.915 277.981 188.777 275.971 188.63 273.968 188.477 271.973 188.271 269.989 188.013 268.016V268.016C187.583 264.494 187.186 260.97 186.824 257.444V257.444C188.839 257.05 190.853 256.643 192.864 256.222 194.87 255.809 196.891 255.458 198.928 255.17V255.17C199.443 255.098 200.005 255.028 200.616 254.962 201.226 254.896 201.846 254.87 202.475 254.883 203.11 254.896 203.727 254.945 204.325 255.03 204.924 255.123 205.47 255.28 205.965 255.503V255.503C207.165 256.035 208.144 256.841 208.902 257.919 209.667 258.989 210.141 260.175 210.326 261.478ZM202.708 262.024V262.024C202.683 261.85 202.647 261.614 202.597 261.314 202.541 261.009 202.467 260.702 202.375 260.395 202.291 260.087 202.186 259.805 202.062 259.55 201.936 259.289 201.788 259.105 201.616 259V259C201.497 258.929 201.304 258.888 201.037 258.878 200.771 258.875 200.492 258.877 200.2 258.884 199.901 258.892 199.614 258.909 199.338 258.934 199.07 258.965 198.879 258.989 198.766 259.005V259.005C197.904 259.127 197.062 259.29 196.24 259.495 195.417 259.7 194.604 259.924 193.8 260.167V260.167L195.563 266.345C196.059 266.384 196.571 266.39 197.099 266.363 197.619 266.33 198.129 266.279 198.63 266.208V266.208C198.844 266.178 199.163 266.122 199.587 266.042 200.005 265.962 200.43 265.858 200.861 265.729 201.3 265.605 201.702 265.457 202.065 265.283 202.422 265.109 202.664 264.915 202.79 264.7V264.7C202.845 264.603 202.874 264.426 202.878 264.166 202.89 263.912 202.88 263.651 202.849 263.383 202.824 263.108 202.799 262.839 202.776 262.576 202.746 262.315 202.723 262.131 202.708 262.024ZM228.132 246.516L229.95 250.495C227.977 251.325 226.018 252.157 224.074 252.99 222.131 253.824 220.18 254.688 218.223 255.584V255.584L219.039 258.043 226.833 254.692C227.189 255.359 227.516 256.023 227.812 256.683 228.115 257.341 228.393 258.019 228.646 258.717V258.717C228.749 259.002 228.851 259.302 228.951 259.618 229.051 259.933 229.152 260.233 229.256 260.519V260.519L222.337 264.532 224.189 268.187C225.71 267.514 227.213 266.801 228.698 266.048 230.181 265.288 231.688 264.548 233.221 263.828V263.828C233.733 264.805 234.25 265.787 234.773 266.774 235.295 267.761 235.868 268.698 236.491 269.585V269.585C233.56 270.625 230.661 271.683 227.793 272.758 224.925 273.833 222.033 274.899 219.116 275.956V275.956C218.308 273.529 217.512 271.105 216.729 268.685 215.941 266.273 215.108 263.855 214.23 261.433V261.433L214.016 260.843C213.508 259.441 212.985 258.056 212.446 256.687 211.905 255.312 211.354 253.923 210.795 252.518V252.518C212.426 251.949 214.048 251.368 215.663 250.776 217.269 250.179 218.897 249.582 220.546 248.985V248.985C221.802 248.53 223.06 248.103 224.321 247.703 225.583 247.303 226.853 246.908 228.132 246.516ZM260.386 255.355V255.355L256.483 258.552C255.61 257.768 254.743 256.993 253.88 256.226 253.014 255.453 252.155 254.673 251.303 253.884V253.884L244.517 258.25 245.863 262.523 241.52 265.098C239.885 261.747 238.272 258.406 236.681 255.075 235.084 251.748 233.476 248.416 231.857 245.078V245.078C233.074 244.05 234.311 243.062 235.568 242.112 236.824 241.163 238.14 240.281 239.515 239.465V239.465C241.186 238.474 242.877 237.51 244.588 236.574V236.574C246.049 238.35 247.503 240.127 248.95 241.904 250.396 243.681 251.858 245.453 253.337 247.219V247.219C254.479 248.628 255.632 250.003 256.796 251.344 257.963 252.69 259.16 254.027 260.386 255.355ZM242.704 253.985L248.043 250.63C247.922 250.466 247.688 250.177 247.341 249.764 246.99 249.344 246.613 248.906 246.208 248.448 245.809 247.987 245.423 247.58 245.05 247.229 244.677 246.878 244.413 246.697 244.258 246.687V246.687C244.207 246.694 244.106 246.73 243.957 246.795 243.798 246.858 243.635 246.927 243.468 247.002 243.295 247.081 243.134 247.166 242.983 247.255 242.832 247.345 242.73 247.405 242.678 247.436V247.436C242.585 247.491 242.458 247.567 242.295 247.663 242.133 247.759 241.968 247.865 241.801 247.98 241.624 248.092 241.467 248.217 241.329 248.354 241.193 248.482 241.113 248.592 241.089 248.684V248.684C241.059 248.726 241.085 248.875 241.167 249.132 241.243 249.393 241.336 249.714 241.445 250.097 241.56 250.475 241.684 250.876 241.817 251.299 241.96 251.725 242.095 252.131 242.222 252.518 242.346 252.899 242.457 253.225 242.556 253.496 242.648 253.771 242.697 253.934 242.704 253.985ZM266.117 224.887V224.887L267.646 226.6 263.143 231.052C263.922 232.057 264.709 233.04 265.505 234.003 266.306 234.961 267.121 235.905 267.952 236.837V236.837C268.972 237.979 269.956 239.143 270.907 240.33 271.862 241.511 272.802 242.702 273.727 243.901V243.901C273.17 244.462 272.608 245.018 272.042 245.568 271.471 246.114 270.894 246.647 270.31 247.168V247.168C270.098 247.357 269.887 247.541 269.676 247.72 269.461 247.894 269.258 248.066 269.067 248.237V248.237C268.207 247.213 267.35 246.197 266.495 245.188 265.64 244.179 264.775 243.184 263.899 242.203V242.203C263.028 241.226 262.127 240.267 261.196 239.326 260.261 238.379 259.319 237.439 258.368 236.506V236.506C257.909 236.944 257.447 237.383 256.982 237.825 256.512 238.271 256.033 238.712 255.545 239.148V239.148C255.268 239.395 254.994 239.64 254.722 239.882 254.456 240.12 254.174 240.357 253.879 240.594V240.594C252.756 239.426 251.652 238.255 250.568 237.08 249.493 235.906 248.415 234.729 247.336 233.55V233.55C249.827 231.417 252.321 229.319 254.817 227.254 257.309 225.183 259.8 223.096 262.289 220.993V220.993C262.983 221.639 263.642 222.276 264.266 222.904 264.884 223.536 265.501 224.197 266.117 224.887ZM287.736 203.613V203.613C287.966 203.779 288.192 203.943 288.416 204.105 288.641 204.267 288.85 204.431 289.046 204.598V204.598C289.215 204.745 289.511 204.992 289.933 205.34 290.356 205.687 290.839 206.09 291.381 206.549 291.929 207.012 292.501 207.505 293.097 208.027 293.683 208.551 294.219 209.048 294.705 209.515 295.187 209.989 295.59 210.41 295.915 210.778 296.245 211.15 296.421 211.414 296.441 211.57V211.57C296.588 212.484 296.522 213.402 296.246 214.326 295.973 215.244 295.594 216.136 295.11 217.001 294.62 217.862 294.079 218.686 293.485 219.472 292.886 220.254 292.337 220.989 291.839 221.678V221.678C291.673 221.908 291.388 222.296 290.983 222.844 290.577 223.383 290.11 223.999 289.584 224.692 289.062 225.38 288.501 226.086 287.902 226.81 287.305 227.544 286.729 228.213 286.174 228.819 285.61 229.427 285.095 229.932 284.628 230.336 284.161 230.739 283.795 230.94 283.529 230.94V230.94C283.23 230.939 282.928 230.908 282.623 230.846 282.314 230.789 282.022 230.727 281.745 230.661V230.661C280.995 230.467 280.215 230.228 279.406 229.942 278.6 229.651 277.799 229.321 277 228.952 276.206 228.577 275.435 228.181 274.687 227.765 273.937 227.34 273.254 226.903 272.636 226.457V226.457C272.297 226.212 271.877 225.866 271.375 225.42 270.87 224.979 270.334 224.488 269.769 223.946 269.208 223.398 268.643 222.827 268.074 222.233 267.509 221.633 266.998 221.051 266.54 220.486 266.084 219.932 265.71 219.412 265.42 218.927 265.131 218.452 264.993 218.056 265.005 217.74V217.74C265.011 217.478 265.134 217.067 265.372 216.507 265.616 215.951 265.927 215.327 266.303 214.633 266.684 213.934 267.107 213.2 267.572 212.429 268.038 211.659 268.486 210.93 268.917 210.243 269.348 209.555 269.744 208.938 270.105 208.393 270.472 207.85 270.747 207.454 270.929 207.202V207.202C271.17 206.869 271.519 206.426 271.976 205.875 272.424 205.325 272.932 204.743 273.501 204.13 274.067 203.508 274.657 202.894 275.27 202.288 275.887 201.677 276.491 201.136 277.082 200.664 277.671 200.183 278.216 199.798 278.715 199.51 279.22 199.226 279.625 199.116 279.93 199.178V199.178C280.19 199.233 280.53 199.349 280.95 199.528 281.372 199.717 281.832 199.95 282.33 200.227 282.834 200.508 283.359 200.813 283.905 201.141 284.45 201.469 284.968 201.789 285.457 202.102 285.942 202.411 286.386 202.699 286.792 202.967 287.192 203.232 287.507 203.447 287.736 203.613ZM285.174 209.002V209.002C284.819 208.745 284.43 208.494 284.009 208.247 283.586 207.991 283.151 207.851 282.703 207.827V207.827C282.392 207.818 281.978 208.039 281.461 208.49 280.944 208.94 280.425 209.468 279.904 210.073 279.388 210.682 278.905 211.286 278.456 211.885 278.01 212.478 277.698 212.898 277.52 213.144V213.144C277.378 213.341 277.15 213.696 276.836 214.21 276.517 214.72 276.203 215.276 275.894 215.876 275.584 216.476 275.321 217.048 275.104 217.59 274.882 218.137 274.813 218.52 274.897 218.739V218.739C274.943 218.939 275.117 219.194 275.418 219.503 275.719 219.812 276.053 220.133 276.42 220.465 276.788 220.798 277.144 221.105 277.489 221.388 277.843 221.669 278.099 221.867 278.258 221.982V221.982C278.4 222.085 278.617 222.233 278.909 222.428 279.197 222.628 279.506 222.818 279.834 222.997 280.158 223.182 280.47 223.349 280.77 223.499 281.064 223.645 281.307 223.717 281.5 223.715V223.715C281.623 223.729 281.817 223.628 282.082 223.411 282.346 223.195 282.648 222.922 282.986 222.592 283.323 222.253 283.662 221.882 284.003 221.48 284.35 221.081 284.681 220.692 284.997 220.313 285.313 219.934 285.584 219.593 285.811 219.291 286.047 218.987 286.211 218.773 286.302 218.647V218.647C286.456 218.434 286.702 218.054 287.039 217.507 287.386 216.958 287.728 216.365 288.065 215.726 288.404 215.097 288.691 214.498 288.928 213.928 289.165 213.359 289.253 212.944 289.192 212.683V212.683C289.151 212.487 288.957 212.209 288.609 211.849 288.262 211.49 287.865 211.123 287.418 210.751 286.976 210.372 286.538 210.022 286.105 209.701 285.681 209.377 285.371 209.145 285.174 209.002ZM295.997 176.538V176.538C297.66 177.212 298.76 178.251 299.297 179.655 299.843 181.056 299.82 182.604 299.227 184.3V184.3C303.385 183.648 307.522 183.283 311.637 183.204V183.204L308.244 192.168C306.543 191.66 304.936 191.289 303.422 191.054 301.915 190.822 300.28 190.691 298.516 190.66V190.66C298.289 191.347 298.072 192.034 297.866 192.722 297.657 193.401 297.442 194.075 297.222 194.743V194.743L304.185 197.39C303.781 198.565 303.345 199.731 302.876 200.888V200.888C302.638 201.476 302.392 202.046 302.139 202.598 301.895 203.147 301.63 203.694 301.343 204.24V204.24C299.532 203.339 297.723 202.45 295.917 201.572 294.115 200.704 292.296 199.886 290.459 199.12V199.12C287.196 197.725 283.949 196.3 280.718 194.845V194.845C281.388 192.904 282.045 190.958 282.69 189.007 283.339 187.064 284.05 185.14 284.823 183.233V183.233C285.018 182.752 285.24 182.23 285.489 181.669 285.739 181.108 286.027 180.558 286.354 180.021 286.683 179.478 287.035 178.969 287.409 178.495 287.789 178.023 288.2 177.629 288.641 177.313V177.313C289.703 176.542 290.891 176.099 292.204 175.984 293.514 175.859 294.778 176.044 295.997 176.538ZM292.648 183.402V183.402C292.485 183.336 292.262 183.249 291.978 183.141 291.685 183.037 291.383 182.948 291.072 182.872 290.763 182.791 290.467 182.74 290.184 182.72 289.895 182.697 289.661 182.734 289.484 182.829V182.829C289.363 182.896 289.23 183.043 289.088 183.269 288.951 183.498 288.813 183.74 288.673 183.996 288.53 184.259 288.401 184.515 288.284 184.767 288.177 185.014 288.101 185.191 288.058 185.297V185.297C287.732 186.104 287.45 186.914 287.215 187.729 286.98 188.543 286.765 189.359 286.573 190.176V190.176L292.802 191.75C293.084 191.341 293.346 190.901 293.587 190.431 293.82 189.965 294.031 189.497 294.221 189.029V189.029C294.302 188.829 294.414 188.525 294.558 188.117 294.699 187.716 294.821 187.296 294.926 186.858 295.04 186.416 295.112 185.994 295.144 185.593 295.174 185.197 295.127 184.89 295.004 184.673V184.673C294.948 184.578 294.809 184.463 294.586 184.329 294.373 184.192 294.142 184.069 293.895 183.962 293.643 183.845 293.398 183.731 293.16 183.62 292.918 183.515 292.748 183.442 292.648 183.402ZM41.683 143.861C41.683 138.191 46.279 133.595 51.949 133.595 57.618 133.595 62.214 138.191 62.214 143.861 62.214 149.53 57.618 154.126 51.949 154.126 46.279 154.126 41.683 149.53 41.683 143.861ZM296.663 143.861C296.663 138.191 301.259 133.595 306.929 133.595 312.598 133.595 317.194 138.191 317.194 143.861 317.194 149.53 312.598 154.126 306.929 154.126 301.259 154.126 296.663 149.53 296.663 143.861Z" fill="#ffffff" data-fill-palette-color="quaternary"></path></svg></g></svg></g></svg></g></svg></g></svg></g></svg></g><defs></defs></svg><rect width="512" height="320" fill="none" stroke="none" visibility="hidden"></rect></g></svg></g></svg>