<svg xmlns="http://www.w3.org/2000/svg" version="1.1" xmlnsXlink="http://www.w3.org/1999/xlink" xmlnsSvgjs="http://svgjs.dev/svgjs" width="2000" height="1306" viewBox="0 0 2000 1306"><g transform="matrix(1,0,0,1,0.7288477850512436,0.5287449392711778)"><svg viewBox="0 0 378 247" data-background-color="#636365" preserveAspectRatio="xMidYMid meet" height="1306" width="2000" xmlns="http://www.w3.org/2000/svg" xmlnsXlink="http://www.w3.org/1999/xlink"><g id="tight-bounds" transform="matrix(1,0,0,1,-0.13775219880764666,-0.09999999999999432)"><svg viewBox="0 0 378.27549445815424 247.2" height="247.2" width="378.27549445815424"><g><svg viewBox="0 0 395.52 258.46914598591803" height="247.2" width="378.27549445815424"><g transform="matrix(1,0,0,1,0,208.84170420942408)"><svg viewBox="0 0 395.52 49.62744177649395" height="49.62744177649395" width="395.52"><g><svg viewBox="0 0 395.52 49.62744177649395" height="49.62744177649395" width="395.52"><g><svg viewBox="0 0 395.52 49.62744177649395" height="49.62744177649395" width="395.52"><g transform="matrix(1,0,0,1,0,0)"><svg width="395.52" viewBox="1.100000023841858 -34.349998474121094 276.92999267578125 34.75" height="49.62744177649395" data-palette-color="#d2d6dc"><path d="M23.9-33.7L23.9-29.4 15.05-29.4 15.05 0 9.9 0 9.9-29.4 1.1-29.4 1.1-33.7 23.9-33.7ZM54.1-29.63Q58.25-24.9 58.25-17 58.25-9.1 54.07-4.35 49.9 0.4 42.8 0.4L42.8 0.4Q35.75 0.4 31.52-4.35 27.3-9.1 27.3-17L27.3-17Q27.3-24.85 31.5-29.6 35.7-34.35 42.75-34.35L42.75-34.35Q49.95-34.35 54.1-29.63ZM35.37-26.18Q32.7-22.8 32.7-17 32.7-11.2 35.45-7.8 38.2-4.4 42.8-4.4L42.8-4.4Q47.55-4.4 50.2-7.75 52.85-11.1 52.85-17L52.85-17Q52.85-22.85 50.17-26.2 47.5-29.55 42.75-29.55L42.75-29.55Q38.05-29.55 35.37-26.18ZM100.89-6.85L100.89-1.65Q97.79 0.4 92.29 0.4L92.29 0.4Q84.74 0.4 79.94-4.3 75.14-9 75.14-16.9L75.14-16.9Q75.14-24.55 79.97-29.35 84.79-34.15 92.19-34.15L92.19-34.15Q97.59-34.15 100.84-32.3L100.84-32.3 100.84-27.25Q98.64-28.45 96.87-28.93 95.09-29.4 92.34-29.4L92.34-29.4Q87.29-29.4 83.92-25.98 80.54-22.55 80.54-16.9L80.54-16.9Q80.54-11.15 83.89-7.75 87.24-4.35 92.74-4.35L92.74-4.35Q97.59-4.35 100.89-6.85L100.89-6.85ZM116.29-29.4L116.29-29.4 111.89-29.4 111.89-17.1 116.54-17.1Q119.74-17.1 121.39-18.78 123.04-20.45 123.04-23.25L123.04-23.25Q123.04-29.4 116.29-29.4ZM111.89-12.8L111.89 0 106.74 0 106.74-33.7 116.14-33.7Q121.94-33.7 125.09-30.88 128.24-28.05 128.24-23.2L128.24-23.2Q128.19-19.65 126.44-17.18 124.69-14.7 121.59-13.6L121.59-13.6 130.39 0 124.24 0 116.34-12.8 111.89-12.8ZM154.59-4.3L154.59 0 135.14 0 135.14-33.7 154.34-33.7 154.34-29.4 140.29-29.4 140.29-19 152.74-19 152.74-14.7 140.29-14.7 140.29-4.3 154.59-4.3ZM168.84-14.25L168.84-14.25 168.28-12.55 179.09-12.55 178.53-14.25Q176.63-20.15 175.44-24.03 174.24-27.9 173.99-28.85L173.99-28.85 173.74-29.8Q173.19-27.45 168.84-14.25ZM166.88-8.25L164.19 0 158.74 0 170.38-33.7 177.13-33.7 188.63 0 183.13 0 180.49-8.25 166.88-8.25ZM214.08-33.7L214.08-29.4 205.23-29.4 205.23 0 200.08 0 200.08-29.4 191.28-29.4 191.28-33.7 214.08-33.7ZM244.28-29.63Q248.43-24.9 248.43-17 248.43-9.1 244.25-4.35 240.08 0.4 232.98 0.4L232.98 0.4Q225.93 0.4 221.71-4.35 217.48-9.1 217.48-17L217.48-17Q217.48-24.85 221.68-29.6 225.88-34.35 232.93-34.35L232.93-34.35Q240.13-34.35 244.28-29.63ZM225.56-26.18Q222.88-22.8 222.88-17 222.88-11.2 225.63-7.8 228.38-4.4 232.98-4.4L232.98-4.4Q237.73-4.4 240.38-7.75 243.03-11.1 243.03-17L243.03-17Q243.03-22.85 240.36-26.2 237.68-29.55 232.93-29.55L232.93-29.55Q228.23-29.55 225.56-26.18ZM263.93-29.4L263.93-29.4 259.53-29.4 259.53-17.1 264.18-17.1Q267.38-17.1 269.03-18.78 270.68-20.45 270.68-23.25L270.68-23.25Q270.68-29.4 263.93-29.4ZM259.53-12.8L259.53 0 254.38 0 254.38-33.7 263.78-33.7Q269.58-33.7 272.73-30.88 275.88-28.05 275.88-23.2L275.88-23.2Q275.83-19.65 274.08-17.18 272.33-14.7 269.23-13.6L269.23-13.6 278.03 0 271.88 0 263.98-12.8 259.53-12.8Z" opacity="1" transform="matrix(1,0,0,1,0,0)" fill="#ffffff" class="undefined-text-0" data-fill-palette-color="primary" id="text-0"></path></svg></g></svg></g></svg></g></svg></g><g transform="matrix(1,0,0,1,75.54432,0)"><svg viewBox="0 0 244.43135999999998 179.5520843473551" height="179.5520843473551" width="244.43135999999998"><g><svg viewBox="0 0 244.43135999999998 179.5520843473551" height="179.5520843473551" width="244.43135999999998"><g transform="matrix(1,0,0,1,94.01530790948422,47.45521003427964)"><svg viewBox="0 0 56.40074418103155 84.64166427879583" height="84.64166427879583" width="56.40074418103155"><g><svg xmlns="http://www.w3.org/2000/svg" xmlnsXlink="http://www.w3.org/1999/xlink" version="1.1" x="0" y="0" viewBox="23.28099822998047 9.434000015258789 53.58099365234375 80.4100112915039" enable-background="new 0 0 100 100" xml:space="preserve" height="84.64166427879583" width="56.40074418103155" class="icon-a-0" data-fill-palette-color="accent" id="a-0"><polygon points="48.462,27.174 51.902,27.174 50.182,11.625 " fill="#ffffff" data-fill-palette-color="accent"></polygon><path d="M59.236 26.742l-0.853-0.709c-0.567-0.474-1.136-0.71-1.702-0.71H43.684c-0.569 0-1.137 0.236-1.705 0.71l-0.853 0.709c-0.568 0.475-0.852 1.065-0.852 1.775v13.795c2.983 1.044 6.535 1.653 10.352 1.653 3.444 0 6.672-0.497 9.463-1.361V28.517C60.09 27.807 59.807 27.216 59.236 26.742z" fill="#ffffff" data-fill-palette-color="accent"></path><path d="M74.342 46.121v-9.097c0-1.731-0.691-3.174-2.078-4.33l-2.076-1.731c-1.387-1.153-2.771-1.731-4.158-1.731H34.335c-1.386 0-2.771 0.578-4.156 1.731l-2.078 1.731c-1.386 1.156-2.078 2.598-2.078 4.33v8.853c-1.698 1.873-2.742 4.351-2.742 7.077 0 2.728 1.043 5.206 2.742 7.078v10.632c7.275 2.545 15.937 4.029 25.243 4.029 8.398 0 16.271-1.209 23.076-3.316v-11.59c1.568-1.842 2.52-4.225 2.52-6.834C76.861 50.346 75.91 47.962 74.342 46.121zM33.835 61.104c-4.5 0-8.149-3.648-8.149-8.149 0-4.499 3.648-8.147 8.149-8.147 4.5 0 8.148 3.648 8.148 8.147C41.983 57.454 38.335 61.104 33.835 61.104zM66.309 61.104c-4.5 0-8.148-3.648-8.148-8.149 0-4.499 3.648-8.147 8.148-8.147s8.147 3.648 8.147 8.147C74.456 57.454 70.809 61.104 66.309 61.104z" fill="#ffffff" data-fill-palette-color="accent"></path><path d="M33.835 46.484c-0.539 0-1.059 0.073-1.559 0.197 1.514 0.487 2.617 1.892 2.617 3.567 0 2.079-1.685 3.766-3.764 3.766-1.676 0-3.08-1.104-3.567-2.619-0.124 0.5-0.197 1.021-0.197 1.56 0 3.573 2.897 6.472 6.471 6.472 3.572 0 6.469-2.896 6.469-6.472C40.305 49.381 37.408 46.484 33.835 46.484z" fill="#ffffff" data-fill-palette-color="accent"></path><circle cx="50.182" cy="13.988" r="4.6" fill="#ffffff" data-fill-palette-color="accent"></circle><path d="M66.309 46.484c-0.693 0-1.36 0.112-1.986 0.314 1.732 0.336 3.044 1.858 3.044 3.69 0 2.079-1.687 3.764-3.765 3.764-1.717 0-3.146-1.156-3.601-2.727-0.104 0.461-0.163 0.937-0.163 1.428 0 3.574 2.896 6.472 6.471 6.472 3.573 0 6.469-2.897 6.469-6.472C72.777 49.381 69.881 46.484 66.309 46.484z" fill="#ffffff" data-fill-palette-color="accent"></path><path d="M26.023 74.271v7.781c0 1.731 0.692 3.176 2.078 4.33l2.078 1.73c1.385 1.156 2.771 1.732 4.156 1.732h31.694c1.386 0 2.771-0.576 4.156-1.732l2.078-1.73c1.385-1.154 2.077-2.599 2.077-4.33v-7.068C67.536 77.09 59.663 78.3 51.266 78.3 41.959 78.301 33.298 76.816 26.023 74.271z" fill="#ffffff" data-fill-palette-color="accent"></path></svg></g></svg></g><path d="M37.251 57.645L38.986 58.215 37.808 61.798 49.684 65.702 49.002 67.777 37.126 63.873 35.957 67.428 34.223 66.857ZM51.704 36.003C53.477 35.788 55.287 36.311 57.133 37.571 58.984 38.834 60.134 40.336 60.582 42.075 61.024 43.81 60.679 45.508 59.546 47.167V47.167C58.417 48.82 56.961 49.763 55.176 49.994 53.386 50.222 51.565 49.704 49.714 48.44V48.44C47.879 47.187 46.74 45.689 46.296 43.944 45.857 42.203 46.202 40.506 47.331 38.853V38.853C48.478 37.172 49.936 36.222 51.704 36.003ZM48.427 43.406C48.79 44.572 49.651 45.618 51.008 46.545 52.37 47.475 53.669 47.89 54.904 47.791 56.138 47.683 57.122 47.09 57.857 46.013V46.013C58.614 44.904 58.815 43.772 58.459 42.619 58.097 41.462 57.224 40.411 55.839 39.466V39.466C54.471 38.532 53.181 38.11 51.968 38.201 50.755 38.291 49.769 38.89 49.012 40V40C48.258 41.104 48.063 42.24 48.427 43.406ZM91.488 17.308L92.502 19.278C91.98 20.197 91.027 21.013 89.643 21.725V21.725C87.739 22.705 85.879 22.914 84.064 22.352 82.24 21.788 80.816 20.512 79.794 18.525V18.525C78.801 16.597 78.602 14.713 79.197 12.873 79.785 11.037 81.014 9.638 82.883 8.676V8.676C84.243 7.976 85.451 7.65 86.508 7.697V7.697L87.494 9.613C86.786 9.589 86.177 9.633 85.666 9.746 85.156 9.859 84.555 10.093 83.863 10.45V10.45C82.591 11.104 81.752 12.082 81.345 13.384 80.937 14.686 81.1 16.049 81.834 17.474V17.474C82.58 18.923 83.596 19.859 84.883 20.281 86.17 20.704 87.506 20.559 88.89 19.846V19.846C90.114 19.216 90.98 18.37 91.488 17.308ZM105.668 3.359V3.359L103.827 3.719 104.829 8.85 106.768 8.471C107.662 8.296 108.293 7.933 108.659 7.38 109.024 6.821 109.131 6.153 108.979 5.376V5.376C108.645 3.665 107.542 2.993 105.668 3.359ZM105.179 10.642L106.223 15.988 104.079 16.407 101.333 2.345 105.25 1.581C106.862 1.266 108.185 1.414 109.22 2.025 110.247 2.638 110.893 3.62 111.157 4.971V4.971C111.337 5.959 111.249 6.847 110.895 7.635 110.545 8.415 109.97 9.042 109.168 9.517V9.517L113.949 14.479 111.374 14.982 107.04 10.278ZM133.743 13.08L133.608 14.901 125.36 14.288 126.422 0 134.56 0.605 134.425 2.426 128.465 1.983 128.138 6.39 133.421 6.783 133.286 8.604 128.002 8.211 127.674 12.629ZM150.514 13.321V13.321L150.033 13.906 154.32 15.547 154.362 14.794C154.458 13.036 154.544 11.584 154.619 10.437 154.695 9.291 154.747 8.578 154.776 8.297V8.297L154.816 7.885C154.436 8.451 153.002 10.263 150.514 13.321ZM148.822 15.397L146.495 18.267 144.333 17.44 154.085 5.831 156.76 6.855 156.213 21.987 154.024 21.149 154.226 17.466ZM181.569 21.727L180.466 23.181 177.461 20.903 169.908 30.864 168.167 29.544 175.72 19.583 172.739 17.322 173.842 15.867ZM197.331 42.439C196.957 44.185 195.874 45.726 194.082 47.061 192.284 48.4 190.49 48.999 188.7 48.856 186.915 48.709 185.423 47.83 184.223 46.219V46.219C183.027 44.613 182.61 42.929 182.972 41.166 183.34 39.4 184.423 37.847 186.22 36.508V36.508C188.002 35.181 189.79 34.591 191.584 34.739 193.372 34.892 194.865 35.77 196.061 37.376V37.376C197.277 39.008 197.7 40.696 197.331 42.439ZM191.399 36.93C190.178 36.894 188.909 37.367 187.591 38.348 186.268 39.333 185.452 40.426 185.144 41.626 184.845 42.828 185.084 43.952 185.863 44.997V44.997C186.666 46.075 187.67 46.633 188.877 46.671 190.089 46.706 191.367 46.222 192.711 45.221V45.221C194.039 44.232 194.858 43.149 195.168 41.973 195.478 40.796 195.231 39.669 194.429 38.592V38.592C193.63 37.52 192.62 36.966 191.399 36.93ZM206.536 61.574V61.574L205.902 59.808 200.981 61.573 201.648 63.432C201.956 64.29 202.41 64.858 203.012 65.137 203.62 65.414 204.296 65.419 205.042 65.151V65.151C206.682 64.563 207.18 63.371 206.536 61.574ZM199.263 62.189L194.135 64.028 193.397 61.971 206.884 57.135 208.231 60.892C208.785 62.438 208.838 63.769 208.39 64.883 207.94 65.992 207.066 66.778 205.77 67.243V67.243C204.821 67.57 203.93 67.617 203.097 67.385 202.274 67.158 201.567 66.684 200.976 65.963V65.963L196.792 71.438 195.906 68.968 199.902 63.973ZM54.445 119.852L52.673 120.437 51.473 116.798 39.373 120.79 38.673 118.668 50.772 114.676 49.578 111.057 51.35 110.472ZM63.826 138.904C63.377 140.662 62.21 142.185 60.327 143.473 58.439 144.765 56.589 145.301 54.778 145.08 52.968 144.86 51.482 143.902 50.322 142.205V142.205C49.173 140.525 48.819 138.794 49.259 137.01 49.703 135.232 50.869 133.697 52.757 132.405V132.405C54.63 131.125 56.473 130.597 58.287 130.823 60.105 131.054 61.589 132.01 62.738 133.69V133.69C63.913 135.408 64.276 137.146 63.826 138.904ZM58.012 133.054C56.769 132.969 55.459 133.398 54.081 134.34 52.697 135.287 51.823 136.364 51.457 137.573 51.091 138.782 51.284 139.936 52.035 141.034V141.034C52.812 142.17 53.818 142.78 55.051 142.863 56.279 142.95 57.598 142.511 59.009 141.546V141.546C60.404 140.592 61.281 139.525 61.642 138.344 62.004 137.153 61.798 135.992 61.025 134.861V134.861C60.259 133.741 59.255 133.139 58.012 133.054ZM89.249 170.141L88.215 172.145C87.146 172.259 85.905 171.953 84.492 171.224V171.224C82.553 170.224 81.276 168.803 80.663 166.96 80.055 165.12 80.274 163.186 81.319 161.158V161.158C82.334 159.189 83.779 157.91 85.655 157.321 87.527 156.722 89.416 156.914 91.319 157.895V157.895C92.703 158.608 93.688 159.419 94.274 160.328V160.328L93.273 162.27C92.87 161.673 92.473 161.195 92.081 160.836 91.687 160.483 91.135 160.124 90.426 159.758V159.758C89.131 159.091 87.822 158.973 86.499 159.406 85.185 159.836 84.153 160.778 83.403 162.233V162.233C82.641 163.71 82.464 165.105 82.874 166.416 83.286 167.736 84.195 168.759 85.602 169.484V169.484C86.85 170.127 88.065 170.346 89.249 170.141ZM108.354 165.512V165.512L106.484 165.145 105.458 170.373 107.435 170.761C108.343 170.939 109.078 170.836 109.641 170.452 110.204 170.074 110.563 169.487 110.719 168.691V168.691C111.061 166.948 110.273 165.888 108.354 165.512ZM105.098 172.204L104.03 177.647 101.847 177.219 104.66 162.886 108.654 163.67C110.299 163.992 111.49 164.643 112.226 165.621 112.964 166.593 113.198 167.767 112.928 169.145V169.145C112.711 170.146 112.285 170.95 111.651 171.558 111.018 172.159 110.233 172.53 109.297 172.672V172.672L111.902 179.192 109.288 178.679 106.998 172.577ZM134.27 177.078L134.406 178.939 125.998 179.552 124.935 164.984 133.234 164.379 133.37 166.24 127.29 166.683 127.618 171.181 133.001 170.788 133.136 172.639 127.753 173.032 128.081 177.529ZM149.901 168.441V168.441L149.94 169.216 154.312 167.55 153.826 166.945C152.71 165.548 151.79 164.386 151.066 163.459 150.345 162.538 149.902 161.963 149.736 161.734V161.734L149.484 161.382C149.579 162.079 149.718 164.432 149.901 168.441ZM150.035 171.176L150.217 174.93 148.007 175.772 147.523 160.325 150.264 159.28 160.118 171.156 157.89 172.005 155.545 169.076ZM170.666 146.879L171.791 148.368 168.735 150.678 176.417 160.842 174.634 162.19 166.952 152.025 163.911 154.323 162.786 152.835ZM185.664 131.85C187.473 131.708 189.292 132.319 191.119 133.685 192.951 135.056 194.056 136.633 194.432 138.418 194.809 140.202 194.382 141.918 193.151 143.564V143.564C191.932 145.194 190.408 146.089 188.578 146.249 186.752 146.403 184.922 145.795 183.09 144.425V144.425C181.273 143.067 180.178 141.493 179.806 139.703 179.437 137.908 179.862 136.195 181.081 134.565V134.565C182.328 132.897 183.856 131.992 185.664 131.85ZM182.006 139.243C182.327 140.446 183.156 141.548 184.493 142.547 185.836 143.551 187.138 144.031 188.401 143.986 189.663 143.942 190.693 143.387 191.489 142.321V142.321C192.314 141.218 192.566 140.07 192.246 138.876 191.932 137.686 191.09 136.579 189.721 135.555V135.555C188.368 134.544 187.074 134.058 185.84 134.099 184.596 134.14 183.564 134.71 182.743 135.807V135.807C181.931 136.894 181.685 138.039 182.006 139.243ZM192.995 116.658V116.658L192.349 118.45 197.361 120.257 198.045 118.361C198.358 117.491 198.368 116.749 198.073 116.134 197.785 115.521 197.259 115.077 196.496 114.801V114.801C194.825 114.199 193.658 114.818 192.995 116.658ZM199.116 120.89L204.335 122.771 203.58 124.864 189.839 119.911 191.22 116.081C191.788 114.504 192.612 113.426 193.69 112.846 194.763 112.264 195.959 112.211 197.279 112.687V112.687C198.236 113.053 198.967 113.596 199.471 114.315 199.969 115.032 200.217 115.864 200.216 116.81V116.81L207.055 115.225 206.152 117.731 199.773 119.069ZM34.238 91.48C34.238 88.398 36.736 85.9 39.817 85.9 42.899 85.9 45.397 88.398 45.397 91.48 45.397 94.561 42.899 97.059 39.817 97.059 36.736 97.059 34.238 94.561 34.238 91.48ZM199.049 91.48C199.049 88.398 201.547 85.9 204.629 85.9 207.711 85.9 210.209 88.398 210.209 91.48 210.209 94.561 207.711 97.059 204.629 97.059 201.547 97.059 199.049 94.561 199.049 91.48Z" fill="#ffffff" data-fill-palette-color="accent"></path></svg></g></svg></g><g></g></svg></g><defs></defs></svg><rect width="378.27549445815424" height="247.2" fill="none" stroke="none" visibility="hidden"></rect></g></svg></g></svg>