<svg xmlns="http://www.w3.org/2000/svg" version="1.1" xmlnsXlink="http://www.w3.org/1999/xlink" xmlnsSvgjs="http://svgjs.dev/svgjs" width="2000" height="2032" viewBox="0 0 2000 2032"><g transform="matrix(1,0,0,1,-0.984835940140897,1.599643290338463)"><svg viewBox="0 0 243 247" data-background-color="#161618" preserveAspectRatio="xMidYMid meet" height="2032" width="2000" xmlns="http://www.w3.org/2000/svg" xmlnsXlink="http://www.w3.org/1999/xlink"><g id="tight-bounds" transform="matrix(1,0,0,1,0.11965756672711336,-0.09999999999999432)"><svg viewBox="0 0 242.76068486654577 247.2" height="247.2" width="242.76068486654577"><g><svg viewBox="0 0 395.52 402.75279357425217" height="247.2" width="242.76068486654577"><g transform="matrix(1,0,0,1,0,271.70741871859934)"><svg viewBox="0 0 395.52 131.04537485565282" height="131.04537485565282" width="395.52"><g><svg viewBox="0 0 395.52 131.04537485565282" height="131.04537485565282" width="395.52"><g><svg viewBox="0 0 395.52 131.04537485565282" height="131.04537485565282" width="395.52"><g transform="matrix(1,0,0,1,0,0)"><svg width="395.52" viewBox="132.5899658203125 -38.18000030517578 262.1600341796875 82.68000793457031" height="131.04537485565282" data-palette-color="#ffffff"><svg></svg><svg></svg><g class="undefined-text-0" data-fill-palette-color="primary" id="text-0"><path xmlns="http://www.w3.org/2000/svg" d="M201.62-28.42v0 3.42l-9.43 0.49c-0.127 1.887-0.223 3.757-0.29 5.61-0.067 1.86-0.1 3.717-0.1 5.57v0c0 2.28-0.057 4.55-0.17 6.81-0.113 2.26-0.253 4.513-0.42 6.76v0c-1.167 0.067-2.337 0.127-3.51 0.18-1.173 0.047-2.347 0.07-3.52 0.07v0c-0.42 0-0.833-0.01-1.24-0.03-0.407-0.013-0.807-0.02-1.2-0.02v0c0.067-1.987 0.123-3.963 0.17-5.93 0.053-1.973 0.08-3.937 0.08-5.89v0c0-1.953-0.05-3.913-0.15-5.88-0.1-1.967-0.213-3.943-0.34-5.93v0c-0.947 0.033-1.9 0.063-2.86 0.09-0.96 0.033-1.927 0.05-2.9 0.05v0c-0.553 0-1.1 0-1.64 0-0.533 0-1.08-0.017-1.64-0.05v0c-0.093-2.407-0.157-4.797-0.19-7.17-0.033-2.38-0.067-4.757-0.1-7.13v0c4.887 0.093 9.737 0.23 14.55 0.41 4.82 0.18 9.653 0.337 14.5 0.47v0c0.133 1.4 0.233 2.757 0.3 4.07 0.067 1.32 0.1 2.663 0.1 4.03zM247.32-20.85v0c0 0.427 0 0.843 0 1.25 0 0.407-0.017 0.803-0.05 1.19v0c-0.033 0.327-0.073 0.897-0.12 1.71-0.053 0.813-0.12 1.75-0.2 2.81-0.08 1.06-0.177 2.173-0.29 3.34-0.113 1.173-0.243 2.257-0.39 3.25-0.147 0.993-0.303 1.847-0.47 2.56-0.16 0.72-0.32 1.16-0.48 1.32v0c-0.98 0.98-2.143 1.703-3.49 2.17-1.353 0.473-2.763 0.793-4.23 0.96-1.467 0.16-2.93 0.223-4.39 0.19-1.467-0.033-2.833-0.05-4.1-0.05v0c-0.427 0-1.143-0.007-2.15-0.02-1.013-0.02-2.163-0.043-3.45-0.07-1.28-0.033-2.62-0.093-4.02-0.18-1.4-0.08-2.71-0.193-3.93-0.34-1.227-0.147-2.287-0.323-3.18-0.53-0.893-0.213-1.453-0.483-1.68-0.81v0c-0.26-0.36-0.49-0.75-0.69-1.17-0.193-0.427-0.37-0.833-0.53-1.22v0c-0.427-1.073-0.82-2.22-1.18-3.44-0.353-1.227-0.653-2.48-0.9-3.76-0.24-1.287-0.433-2.567-0.58-3.84-0.147-1.267-0.22-2.47-0.22-3.61v0c0-0.62 0.047-1.427 0.14-2.42 0.1-0.993 0.23-2.067 0.39-3.22 0.167-1.153 0.363-2.333 0.59-3.54 0.227-1.207 0.48-2.33 0.76-3.37 0.273-1.04 0.573-1.943 0.9-2.71 0.327-0.767 0.683-1.28 1.07-1.54v0c0.327-0.227 0.93-0.437 1.81-0.63 0.88-0.2 1.907-0.37 3.08-0.51 1.167-0.147 2.42-0.28 3.76-0.4 1.333-0.113 2.6-0.21 3.8-0.29 1.207-0.08 2.3-0.137 3.28-0.17 0.973-0.033 1.687-0.05 2.14-0.05v0c0.62 0 1.46 0.033 2.52 0.1 1.06 0.067 2.207 0.173 3.44 0.32 1.24 0.147 2.493 0.323 3.76 0.53 1.273 0.213 2.453 0.467 3.54 0.76 1.093 0.293 2.03 0.62 2.81 0.98 0.78 0.353 1.267 0.743 1.46 1.17v0c0.167 0.36 0.323 0.873 0.47 1.54 0.147 0.667 0.267 1.423 0.36 2.27 0.1 0.847 0.19 1.74 0.27 2.68 0.08 0.947 0.147 1.85 0.2 2.71 0.047 0.867 0.087 1.657 0.12 2.37 0.033 0.72 0.05 1.29 0.05 1.71zM238.58-19.24v0c0-0.647-0.033-1.337-0.1-2.07-0.067-0.733-0.277-1.377-0.63-1.93v0c-0.26-0.393-0.887-0.703-1.88-0.93-0.993-0.227-2.087-0.39-3.28-0.49-1.187-0.093-2.333-0.15-3.44-0.17-1.107-0.013-1.887-0.02-2.34-0.02v0c-0.36 0-0.987 0.03-1.88 0.09-0.893 0.067-1.837 0.173-2.83 0.32-0.993 0.147-1.913 0.327-2.76 0.54-0.847 0.213-1.367 0.467-1.56 0.76v0c-0.2 0.227-0.357 0.657-0.47 1.29-0.113 0.633-0.21 1.317-0.29 2.05-0.08 0.733-0.137 1.433-0.17 2.1-0.033 0.667-0.05 1.147-0.05 1.44v0c0 0.26 0.007 0.65 0.02 1.17 0.02 0.52 0.063 1.057 0.13 1.61 0.06 0.553 0.13 1.077 0.21 1.57 0.087 0.487 0.21 0.843 0.37 1.07v0c0.1 0.16 0.393 0.307 0.88 0.44 0.487 0.127 1.08 0.25 1.78 0.37 0.7 0.113 1.44 0.2 2.22 0.26 0.787 0.067 1.543 0.127 2.27 0.18 0.733 0.047 1.387 0.077 1.96 0.09 0.567 0.02 0.963 0.03 1.19 0.03v0c0.393 0 1.07-0.033 2.03-0.1 0.96-0.067 1.97-0.173 3.03-0.32 1.053-0.147 2.03-0.323 2.93-0.53 0.893-0.213 1.47-0.467 1.73-0.76v0c0.193-0.227 0.357-0.707 0.49-1.44 0.127-0.733 0.223-1.53 0.29-2.39 0.067-0.867 0.107-1.697 0.12-2.49 0.02-0.8 0.03-1.38 0.03-1.74zM315.38-1.37v2.2c-0.613-0.033-1.213-0.083-1.8-0.15v0c-0.487-0.06-0.967-0.107-1.44-0.14-0.473-0.033-0.823-0.05-1.05-0.05v0c-1.273 0-2.543 0.023-3.81 0.07-1.267 0.047-2.52 0.137-3.76 0.27v0c0.033-1.367 0.057-2.71 0.07-4.03 0.02-1.32 0.03-2.663 0.03-4.03v0c0-2.44-0.04-4.863-0.12-7.27-0.087-2.413-0.16-4.823-0.22-7.23v0l-10.26 23.19c-1.493-4.067-3.097-8.06-4.81-11.98-1.707-3.927-3.487-7.843-5.34-11.75v0l0.78 24.13c-0.36 0-0.727-0.01-1.1-0.03-0.373-0.013-0.757-0.02-1.15-0.02v0c-1.233 0-2.447 0.047-3.64 0.14-1.187 0.1-2.383 0.2-3.59 0.3v0c0.167-3.027 0.33-6.04 0.49-9.04 0.167-2.993 0.25-6.003 0.25-9.03v0c0-3.547-0.027-7.08-0.08-10.6-0.047-3.513-0.087-7.043-0.12-10.59v0c2.347 0 4.633-0.067 6.86-0.2 2.233-0.127 4.52-0.303 6.86-0.53v0c0.78 2.6 1.587 5.18 2.42 7.74 0.827 2.553 1.713 5.1 2.66 7.64v0c1.007-2.413 2.153-4.773 3.44-7.08 1.287-2.313 2.597-4.61 3.93-6.89v0c2.213-0.067 4.403-0.13 6.57-0.19 2.167-0.067 4.357-0.117 6.57-0.15v0c0.093 2.927 0.213 5.823 0.36 8.69 0.147 2.867 0.287 5.763 0.42 8.69v0c0.1 2.313 0.19 4.627 0.27 6.94 0.08 2.307 0.153 4.6 0.22 6.88v0zM356.16-12.16v0c0 1.173-0.18 2.403-0.54 3.69-0.36 1.287-0.88 2.49-1.56 3.61-0.687 1.127-1.527 2.103-2.52 2.93-0.993 0.833-2.107 1.38-3.34 1.64v0c-0.493 0.093-1.073 0.173-1.74 0.24-0.667 0.067-1.357 0.117-2.07 0.15-0.72 0.033-1.43 0.067-2.13 0.1-0.7 0.027-1.293 0.04-1.78 0.04v0c-2.8 0.133-5.6 0.207-8.4 0.22-2.8 0.02-5.613 0.03-8.44 0.03v0c-0.133-1.333-0.257-2.653-0.37-3.96-0.113-1.3-0.267-2.633-0.46-4v0c2.247-0.1 4.483-0.207 6.71-0.32 2.233-0.113 4.47-0.25 6.71-0.41v0c0.493-0.033 1.04-0.05 1.64-0.05 0.6 0 1.22-0.017 1.86-0.05 0.633-0.033 1.25-0.073 1.85-0.12 0.6-0.053 1.13-0.127 1.59-0.22v0c0.193-0.033 0.43-0.09 0.71-0.17 0.273-0.087 0.523-0.203 0.75-0.35 0.227-0.147 0.423-0.317 0.59-0.51 0.16-0.193 0.24-0.437 0.24-0.73v0c0-0.687-0.073-1.443-0.22-2.27-0.147-0.833-0.25-1.573-0.31-2.22v0c-2.447 0.227-4.897 0.447-7.35 0.66-2.46 0.207-4.927 0.31-7.4 0.31v0c-1.693 0-3.043-0.48-4.05-1.44-1.013-0.96-1.747-2.22-2.2-3.78v0c-0.1-0.36-0.19-0.79-0.27-1.29-0.08-0.507-0.143-1.03-0.19-1.57-0.053-0.533-0.097-1.06-0.13-1.58-0.027-0.527-0.057-0.967-0.09-1.32v0c-0.167-2.153-0.29-4.27-0.37-6.35-0.08-2.087-0.153-4.203-0.22-6.35v0c1.56 0.167 3.13 0.313 4.71 0.44 1.58 0.133 3.15 0.247 4.71 0.34v0c0 1.533 0.043 3.153 0.13 4.86 0.08 1.713 0.283 3.3 0.61 4.76v0c0.16 0.78 0.467 1.457 0.92 2.03 0.46 0.567 1.007 1.04 1.64 1.42 0.633 0.373 1.317 0.65 2.05 0.83 0.733 0.173 1.473 0.26 2.22 0.26v0c0.88 0 1.76-0.087 2.64-0.26 0.88-0.18 1.727-0.4 2.54-0.66v0c-0.133-2.447-0.24-4.857-0.32-7.23-0.08-2.38-0.233-4.773-0.46-7.18v0c0.973-0.033 1.95-0.073 2.93-0.12 0.973-0.047 1.95-0.07 2.93-0.07v0c1.527 0 3.073 0.147 4.64 0.44v0c0 1.4 0.023 2.8 0.07 4.2 0.047 1.393 0.103 2.79 0.17 4.19v0c0.067 0.653 0.123 1.313 0.17 1.98 0.047 0.667 0.087 1.327 0.12 1.98v0c0.133 2.213 0.347 4.42 0.64 6.62 0.293 2.193 0.44 4.397 0.44 6.61z" fill="#ffffff" fill-rule="nonzero" stroke="none" stroke-width="1" stroke-linecap="butt" stroke-linejoin="miter" stroke-miterlimit="10" stroke-dasharray="" stroke-dashoffset="0" font-family="none" font-weight="none" font-size="none" text-anchor="none" style="mix-blend-mode: normal" data-fill-palette-color="primary" opacity="1"></path><path xmlns="http://www.w3.org/2000/svg" d="M165.6 31.86v0l-0.05 7.61c-1.493 0.293-2.973 0.57-4.44 0.83-1.467 0.267-2.947 0.497-4.44 0.69v0c-1.567 0.193-3.13 0.373-4.69 0.54-1.567 0.16-3.13 0.24-4.69 0.24v0c-0.453 0-1.12-0.017-2-0.05-0.88-0.033-1.793-0.097-2.74-0.19-0.94-0.1-1.833-0.223-2.68-0.37-0.847-0.147-1.467-0.333-1.86-0.56v0c-0.353-0.227-0.693-0.497-1.02-0.81-0.327-0.307-0.62-0.623-0.88-0.95v0c-0.687-0.847-1.257-1.773-1.71-2.78-0.453-1.013-0.81-2.057-1.07-3.13-0.26-1.073-0.45-2.163-0.57-3.27-0.113-1.107-0.17-2.197-0.17-3.27v0c0-1.3 0.073-2.65 0.22-4.05 0.147-1.4 0.383-2.783 0.71-4.15 0.327-1.367 0.76-2.687 1.3-3.96 0.533-1.267 1.19-2.437 1.97-3.51v0c0.227-0.293 0.52-0.653 0.88-1.08 0.36-0.42 0.72-0.73 1.08-0.93v0c0.873-0.487 1.857-0.893 2.95-1.22 1.093-0.327 2.223-0.577 3.39-0.75 1.173-0.18 2.337-0.31 3.49-0.39 1.16-0.087 2.227-0.13 3.2-0.13v0c1.86 0 3.717 0.107 5.57 0.32 1.853 0.213 3.66 0.58 5.42 1.1v0c-0.067 0.88-0.117 1.767-0.15 2.66-0.033 0.893-0.05 1.78-0.05 2.66v0c0 2.12 0.05 4.253 0.15 6.4v0c-1.467-0.553-2.997-0.953-4.59-1.2-1.593-0.24-3.173-0.36-4.74-0.36v0c-0.32 0-0.79 0.023-1.41 0.07-0.62 0.047-1.32 0.11-2.1 0.19-0.78 0.087-1.587 0.193-2.42 0.32-0.827 0.133-1.6 0.297-2.32 0.49-0.713 0.193-1.34 0.42-1.88 0.68-0.533 0.26-0.883 0.537-1.05 0.83v0c-0.127 0.26-0.23 0.627-0.31 1.1-0.087 0.473-0.153 0.97-0.2 1.49-0.047 0.52-0.08 1.023-0.1 1.51-0.013 0.493-0.02 0.887-0.02 1.18v0c0 0.293 0.033 0.877 0.1 1.75 0.06 0.88 0.14 1.817 0.24 2.81 0.1 0.993 0.223 1.897 0.37 2.71 0.147 0.813 0.3 1.287 0.46 1.42v0c0.16 0.093 0.43 0.15 0.81 0.17 0.373 0.013 0.623 0.02 0.75 0.02v0c1.6 0 3.31-0.08 5.13-0.24 1.82-0.167 3.667-0.387 5.54-0.66 1.873-0.28 3.72-0.573 5.54-0.88 1.827-0.307 3.52-0.607 5.08-0.9zM205.79 18.87v0c0 2.667-0.813 4.767-2.44 6.3-1.633 1.527-3.783 2.357-6.45 2.49v0c3.22 5.373 6.037 10.873 8.45 16.5v0l-14.26 0.34c-0.26-2.633-0.65-5.057-1.17-7.27-0.52-2.213-1.253-4.54-2.2-6.98v0c-1.073 0.06-2.14 0.14-3.2 0.24-1.053 0.1-2.103 0.18-3.15 0.24v0l0.25 11.09c-1.86 0.1-3.717 0.15-5.57 0.15v0c-0.947 0-1.867-0.017-2.76-0.05-0.893-0.033-1.797-0.1-2.71-0.2v0c0.227-2.993 0.44-5.98 0.64-8.96 0.193-2.98 0.307-5.95 0.34-8.91v0c0.1-5.273 0.247-10.547 0.44-15.82v0c3.06-0.16 6.11-0.34 9.15-0.54 3.047-0.193 6.1-0.29 9.16-0.29v0c0.78 0 1.627 0.017 2.54 0.05 0.907 0.033 1.827 0.123 2.76 0.27 0.927 0.147 1.82 0.35 2.68 0.61 0.867 0.26 1.64 0.6 2.32 1.02v0c1.66 1.047 2.937 2.44 3.83 4.18 0.9 1.74 1.35 3.587 1.35 5.54zM194.46 18.09v0c0-0.26-0.01-0.62-0.03-1.08-0.013-0.453-0.053-0.917-0.12-1.39-0.067-0.473-0.163-0.913-0.29-1.32-0.133-0.407-0.313-0.707-0.54-0.9v0c-0.16-0.127-0.437-0.223-0.83-0.29-0.387-0.067-0.8-0.123-1.24-0.17-0.44-0.053-0.863-0.087-1.27-0.1-0.407-0.02-0.693-0.03-0.86-0.03v0c-1.3 0-2.577 0.067-3.83 0.2-1.253 0.133-2.5 0.297-3.74 0.49v0l1.32 9.47c0.72 0.167 1.47 0.28 2.25 0.34 0.78 0.067 1.543 0.1 2.29 0.1v0c0.327 0 0.807-0.017 1.44-0.05 0.64-0.033 1.293-0.097 1.96-0.19 0.667-0.1 1.283-0.24 1.85-0.42 0.573-0.18 0.973-0.417 1.2-0.71v0c0.1-0.127 0.18-0.377 0.24-0.75 0.067-0.38 0.11-0.773 0.13-1.18 0.013-0.407 0.027-0.803 0.04-1.19 0.02-0.393 0.03-0.67 0.03-0.83zM238.55 7.2l0.54 6.49c-3.193 0.167-6.36 0.34-9.5 0.52-3.14 0.173-6.307 0.393-9.5 0.66v0l-0.09 3.85 12.59-0.73c0.167 1.107 0.29 2.197 0.37 3.27 0.08 1.073 0.12 2.163 0.12 3.27v0c0 0.46-0.007 0.933-0.02 1.42-0.02 0.487-0.03 0.96-0.03 1.42v0l-11.72 2.1 0.74 6.05c2.473-0.16 4.937-0.397 7.39-0.71 2.46-0.307 4.943-0.573 7.45-0.8v0c0.227 1.627 0.453 3.26 0.68 4.9 0.233 1.647 0.56 3.25 0.98 4.81v0c-4.62-0.033-9.21-0.023-13.77 0.03-4.553 0.047-9.143 0.07-13.77 0.07v0c0.1-3.807 0.213-7.6 0.34-11.38 0.133-3.773 0.2-7.58 0.2-11.42v0-0.93c0-2.213-0.033-4.42-0.1-6.62-0.067-2.193-0.13-4.413-0.19-6.66v0c2.567 0.033 5.13 0.04 7.69 0.02 2.553-0.013 5.133-0.02 7.74-0.02v0c1.98 0 3.957 0.04 5.93 0.12 1.967 0.08 3.943 0.17 5.93 0.27zM275.37 43.28v0l-7.42 1.13c-0.527-1.66-1.05-3.313-1.57-4.96-0.52-1.647-1.023-3.3-1.51-4.96v0l-12.01 0.44-1.52 6.5h-7.52c0.46-5.533 0.933-11.037 1.42-16.51 0.487-5.467 0.96-10.95 1.42-16.45v0c2.34-0.393 4.673-0.72 7-0.98 2.327-0.26 4.68-0.39 7.06-0.39v0c2.893 0 5.79 0.05 8.69 0.15v0c0.52 3.387 1.033 6.763 1.54 10.13 0.507 3.367 1.037 6.743 1.59 10.13v0c0.387 2.673 0.817 5.31 1.29 7.91 0.473 2.607 0.987 5.227 1.54 7.86zM253.79 28.1l9.37-0.25c-0.033-0.293-0.113-0.837-0.24-1.63-0.133-0.8-0.28-1.647-0.44-2.54-0.167-0.893-0.357-1.707-0.57-2.44-0.207-0.733-0.41-1.167-0.61-1.3v0c-0.06-0.033-0.213-0.063-0.46-0.09-0.247-0.033-0.507-0.067-0.78-0.1-0.28-0.033-0.55-0.05-0.81-0.05-0.26 0-0.437 0-0.53 0v0c-0.167 0-0.387 0-0.66 0-0.28 0-0.573 0.007-0.88 0.02-0.313 0.02-0.607 0.063-0.88 0.13-0.28 0.06-0.467 0.14-0.56 0.24v0c-0.067 0.033-0.15 0.243-0.25 0.63-0.093 0.393-0.213 0.877-0.36 1.45-0.147 0.567-0.293 1.177-0.44 1.83-0.147 0.647-0.287 1.263-0.42 1.85-0.127 0.587-0.23 1.093-0.31 1.52-0.087 0.42-0.143 0.663-0.17 0.73zM307.35 15.01v0 3.42l-9.42 0.49c-0.133 1.887-0.233 3.757-0.3 5.61-0.06 1.86-0.09 3.717-0.09 5.57v0c0 2.28-0.06 4.55-0.18 6.81-0.113 2.26-0.25 4.513-0.41 6.76v0c-1.173 0.067-2.347 0.127-3.52 0.18-1.167 0.047-2.337 0.07-3.51 0.07v0c-0.427 0-0.843-0.01-1.25-0.03-0.407-0.013-0.803-0.02-1.19-0.02v0c0.06-1.987 0.117-3.963 0.17-5.93 0.047-1.973 0.07-3.937 0.07-5.89v0c0-1.953-0.05-3.913-0.15-5.88-0.093-1.967-0.207-3.943-0.34-5.93v0c-0.94 0.033-1.89 0.063-2.85 0.09-0.96 0.033-1.93 0.05-2.91 0.05v0c-0.553 0-1.1 0-1.64 0-0.533 0-1.077-0.017-1.63-0.05v0c-0.1-2.407-0.167-4.797-0.2-7.17-0.027-2.38-0.057-4.757-0.09-7.13v0c4.88 0.093 9.73 0.23 14.55 0.41 4.813 0.18 9.647 0.337 14.5 0.47v0c0.127 1.4 0.223 2.757 0.29 4.07 0.067 1.32 0.1 2.663 0.1 4.03zM353.05 22.58v0c0 0.427 0 0.843 0 1.25 0 0.407-0.017 0.803-0.05 1.19v0c-0.027 0.327-0.067 0.897-0.12 1.71-0.047 0.813-0.11 1.75-0.19 2.81-0.087 1.06-0.187 2.173-0.3 3.34-0.113 1.173-0.243 2.257-0.39 3.25-0.147 0.993-0.3 1.847-0.46 2.56-0.167 0.72-0.33 1.16-0.49 1.32v0c-0.973 0.98-2.137 1.703-3.49 2.17-1.353 0.473-2.76 0.793-4.22 0.96-1.467 0.16-2.933 0.223-4.4 0.19-1.467-0.033-2.833-0.05-4.1-0.05v0c-0.42 0-1.137-0.007-2.15-0.02-1.007-0.02-2.153-0.043-3.44-0.07-1.287-0.033-2.63-0.093-4.03-0.18-1.4-0.08-2.71-0.193-3.93-0.34-1.22-0.147-2.277-0.323-3.17-0.53-0.9-0.213-1.463-0.483-1.69-0.81v0c-0.26-0.36-0.487-0.75-0.68-1.17-0.193-0.427-0.373-0.833-0.54-1.22v0c-0.42-1.073-0.81-2.22-1.17-3.44-0.36-1.227-0.66-2.48-0.9-3.76-0.247-1.287-0.443-2.567-0.59-3.84-0.147-1.267-0.22-2.47-0.22-3.61v0c0-0.62 0.05-1.427 0.15-2.42 0.093-0.993 0.223-2.067 0.39-3.22 0.16-1.153 0.353-2.333 0.58-3.54 0.227-1.207 0.48-2.33 0.76-3.37 0.273-1.04 0.573-1.943 0.9-2.71 0.327-0.767 0.687-1.28 1.08-1.54v0c0.327-0.227 0.927-0.437 1.8-0.63 0.88-0.2 1.907-0.37 3.08-0.51 1.173-0.147 2.427-0.28 3.76-0.4 1.333-0.113 2.603-0.21 3.81-0.29 1.207-0.08 2.297-0.137 3.27-0.17 0.973-0.033 1.69-0.05 2.15-0.05v0c0.62 0 1.457 0.033 2.51 0.1 1.06 0.067 2.21 0.173 3.45 0.32 1.233 0.147 2.487 0.323 3.76 0.53 1.267 0.213 2.447 0.467 3.54 0.76 1.087 0.293 2.02 0.62 2.8 0.98 0.78 0.353 1.27 0.743 1.47 1.17v0c0.16 0.36 0.313 0.873 0.46 1.54 0.147 0.667 0.27 1.423 0.37 2.27 0.093 0.847 0.183 1.74 0.27 2.68 0.08 0.947 0.143 1.85 0.19 2.71 0.053 0.867 0.093 1.657 0.12 2.37 0.033 0.72 0.05 1.29 0.05 1.71zM344.31 24.19v0c0-0.647-0.033-1.337-0.1-2.07-0.06-0.733-0.27-1.377-0.63-1.93v0c-0.26-0.393-0.887-0.703-1.88-0.93-0.993-0.227-2.083-0.39-3.27-0.49-1.187-0.093-2.333-0.15-3.44-0.17-1.107-0.013-1.89-0.02-2.35-0.02v0c-0.353 0-0.98 0.03-1.88 0.09-0.893 0.067-1.837 0.173-2.83 0.32-0.993 0.147-1.913 0.327-2.76 0.54-0.847 0.213-1.367 0.467-1.56 0.76v0c-0.193 0.227-0.347 0.657-0.46 1.29-0.12 0.633-0.22 1.317-0.3 2.05-0.08 0.733-0.137 1.433-0.17 2.1-0.033 0.667-0.05 1.147-0.05 1.44v0c0 0.26 0.01 0.65 0.03 1.17 0.013 0.52 0.053 1.057 0.12 1.61 0.067 0.553 0.14 1.077 0.22 1.57 0.08 0.487 0.203 0.843 0.37 1.07v0c0.093 0.16 0.383 0.307 0.87 0.44 0.493 0.127 1.09 0.25 1.79 0.37 0.7 0.113 1.44 0.2 2.22 0.26 0.78 0.067 1.537 0.127 2.27 0.18 0.733 0.047 1.383 0.077 1.95 0.09 0.573 0.02 0.973 0.03 1.2 0.03v0c0.387 0 1.06-0.033 2.02-0.1 0.96-0.067 1.97-0.173 3.03-0.32 1.06-0.147 2.037-0.323 2.93-0.53 0.893-0.213 1.47-0.467 1.73-0.76v0c0.2-0.227 0.363-0.707 0.49-1.44 0.133-0.733 0.233-1.53 0.3-2.39 0.06-0.867 0.1-1.697 0.12-2.49 0.013-0.8 0.02-1.38 0.02-1.74zM394.75 18.87v0c0 2.667-0.813 4.767-2.44 6.3-1.627 1.527-3.773 2.357-6.44 2.49v0c3.22 5.373 6.033 10.873 8.44 16.5v0l-14.26 0.34c-0.26-2.633-0.65-5.057-1.17-7.27-0.52-2.213-1.25-4.54-2.19-6.98v0c-1.08 0.06-2.147 0.14-3.2 0.24-1.06 0.1-2.11 0.18-3.15 0.24v0l0.24 11.09c-1.853 0.1-3.707 0.15-5.56 0.15v0c-0.947 0-1.867-0.017-2.76-0.05-0.9-0.033-1.803-0.1-2.71-0.2v0c0.227-2.993 0.437-5.98 0.63-8.96 0.193-2.98 0.307-5.95 0.34-8.91v0c0.1-5.273 0.247-10.547 0.44-15.82v0c3.06-0.16 6.113-0.34 9.16-0.54 3.04-0.193 6.09-0.29 9.15-0.29v0c0.787 0 1.633 0.017 2.54 0.05 0.913 0.033 1.833 0.123 2.76 0.27 0.927 0.147 1.823 0.35 2.69 0.61 0.86 0.26 1.633 0.6 2.32 1.02v0c1.66 1.047 2.937 2.44 3.83 4.18 0.893 1.74 1.34 3.587 1.34 5.54zM383.42 18.09v0c0-0.26-0.007-0.62-0.02-1.08-0.02-0.453-0.06-0.917-0.12-1.39-0.067-0.473-0.167-0.913-0.3-1.32-0.127-0.407-0.303-0.707-0.53-0.9v0c-0.167-0.127-0.443-0.223-0.83-0.29-0.393-0.067-0.81-0.123-1.25-0.17-0.44-0.053-0.863-0.087-1.27-0.1-0.407-0.02-0.69-0.03-0.85-0.03v0c-1.307 0-2.587 0.067-3.84 0.2-1.247 0.133-2.49 0.297-3.73 0.49v0l1.32 9.47c0.713 0.167 1.46 0.28 2.24 0.34 0.787 0.067 1.553 0.1 2.3 0.1v0c0.327 0 0.807-0.017 1.44-0.05 0.633-0.033 1.283-0.097 1.95-0.19 0.667-0.1 1.287-0.24 1.86-0.42 0.567-0.18 0.963-0.417 1.19-0.71v0c0.1-0.127 0.183-0.377 0.25-0.75 0.067-0.38 0.107-0.773 0.12-1.18 0.013-0.407 0.03-0.803 0.05-1.19 0.013-0.393 0.02-0.67 0.02-0.83z" fill="#ffffff" fill-rule="nonzero" stroke="none" stroke-width="1" stroke-linecap="butt" stroke-linejoin="miter" stroke-miterlimit="10" stroke-dasharray="" stroke-dashoffset="0" font-family="none" font-weight="none" font-size="none" text-anchor="none" style="mix-blend-mode: normal" data-fill-palette-color="primary" opacity="1"></path></g></svg></g></svg></g></svg></g></svg></g><g transform="matrix(1,0,0,1,112.03189031474565,0)"><svg viewBox="0 0 171.45621937050868 257.30759352907427" height="257.30759352907427" width="171.45621937050868"><g><svg xmlns="http://www.w3.org/2000/svg" xmlnsXlink="http://www.w3.org/1999/xlink" version="1.1" x="0" y="0" viewBox="23.28099822998047 9.434000015258789 53.58099365234375 80.4100112915039" enable-background="new 0 0 100 100" xml:space="preserve" height="257.30759352907427" width="171.45621937050868" class="icon-icon-0" data-fill-palette-color="accent" id="icon-0"><polygon points="48.462,27.174 51.902,27.174 50.182,11.625 " fill="#ffffff" data-fill-palette-color="accent"></polygon><path d="M59.236 26.742l-0.853-0.709c-0.567-0.474-1.136-0.71-1.702-0.71H43.684c-0.569 0-1.137 0.236-1.705 0.71l-0.853 0.709c-0.568 0.475-0.852 1.065-0.852 1.775v13.795c2.983 1.044 6.535 1.653 10.352 1.653 3.444 0 6.672-0.497 9.463-1.361V28.517C60.09 27.807 59.807 27.216 59.236 26.742z" fill="#ffffff" data-fill-palette-color="accent"></path><path d="M74.342 46.121v-9.097c0-1.731-0.691-3.174-2.078-4.33l-2.076-1.731c-1.387-1.153-2.771-1.731-4.158-1.731H34.335c-1.386 0-2.771 0.578-4.156 1.731l-2.078 1.731c-1.386 1.156-2.078 2.598-2.078 4.33v8.853c-1.698 1.873-2.742 4.351-2.742 7.077 0 2.728 1.043 5.206 2.742 7.078v10.632c7.275 2.545 15.937 4.029 25.243 4.029 8.398 0 16.271-1.209 23.076-3.316v-11.59c1.568-1.842 2.52-4.225 2.52-6.834C76.861 50.346 75.91 47.962 74.342 46.121zM33.835 61.104c-4.5 0-8.149-3.648-8.149-8.149 0-4.499 3.648-8.147 8.149-8.147 4.5 0 8.148 3.648 8.148 8.147C41.983 57.454 38.335 61.104 33.835 61.104zM66.309 61.104c-4.5 0-8.148-3.648-8.148-8.149 0-4.499 3.648-8.147 8.148-8.147s8.147 3.648 8.147 8.147C74.456 57.454 70.809 61.104 66.309 61.104z" fill="#ffffff" data-fill-palette-color="accent"></path><path d="M33.835 46.484c-0.539 0-1.059 0.073-1.559 0.197 1.514 0.487 2.617 1.892 2.617 3.567 0 2.079-1.685 3.766-3.764 3.766-1.676 0-3.08-1.104-3.567-2.619-0.124 0.5-0.197 1.021-0.197 1.56 0 3.573 2.897 6.472 6.471 6.472 3.572 0 6.469-2.896 6.469-6.472C40.305 49.381 37.408 46.484 33.835 46.484z" fill="#ffffff" data-fill-palette-color="accent"></path><circle cx="50.182" cy="13.988" r="4.6" fill="#ffffff" data-fill-palette-color="accent"></circle><path d="M66.309 46.484c-0.693 0-1.36 0.112-1.986 0.314 1.732 0.336 3.044 1.858 3.044 3.69 0 2.079-1.687 3.764-3.765 3.764-1.717 0-3.146-1.156-3.601-2.727-0.104 0.461-0.163 0.937-0.163 1.428 0 3.574 2.896 6.472 6.471 6.472 3.573 0 6.469-2.897 6.469-6.472C72.777 49.381 69.881 46.484 66.309 46.484z" fill="#ffffff" data-fill-palette-color="accent"></path><path d="M26.023 74.271v7.781c0 1.731 0.692 3.176 2.078 4.33l2.078 1.73c1.385 1.156 2.771 1.732 4.156 1.732h31.694c1.386 0 2.771-0.576 4.156-1.732l2.078-1.73c1.385-1.154 2.077-2.599 2.077-4.33v-7.068C67.536 77.09 59.663 78.3 51.266 78.3 41.959 78.301 33.298 76.816 26.023 74.271z" fill="#ffffff" data-fill-palette-color="accent"></path></svg></g></svg></g><g></g></svg></g><defs></defs></svg><rect width="242.76068486654577" height="247.2" fill="none" stroke="none" visibility="hidden"></rect></g></svg></g></svg>